<?xml version="1.0" encoding="UTF-8"?>
<svg version="1.1" xmlns="http://www.w3.org/2000/svg" width="535" height="338">
<path d="M0 0 C2.31 0.33 4.62 0.66 7 1 C7 1.66 7 2.32 7 3 C7.86625 2.7525 8.7325 2.505 9.625 2.25 C13 2 13 2 16.3125 3.625 C19.2648864 6.23408566 19.59107115 7.21740817 20 11 C20.99 11.495 20.99 11.495 22 12 C22 12.99 22 13.98 22 15 C22.60328125 14.91621094 23.2065625 14.83242188 23.828125 14.74609375 C24.62734375 14.64425781 25.4265625 14.54242188 26.25 14.4375 C27.03890625 14.33308594 27.8278125 14.22867188 28.640625 14.12109375 C31.00532874 13.99972651 32.7511037 14.30366743 35 15 C35.33 13.68 35.66 12.36 36 11 C39.0625 10.5 39.0625 10.5 43 11 C45.71294856 13.38823271 47.86481726 16.09251712 50 19 C50.33 18.01 50.66 17.02 51 16 C52.32 16.33 53.64 16.66 55 17 C55 16.34 55 15.68 55 15 C56.32 14.34 57.64 13.68 59 13 C58.67 11.35 58.34 9.7 58 8 C69.62144479 4.88663373 69.62144479 4.88663373 74.9375 7.375 C75.618125 7.91125 76.29875 8.4475 77 9 C77.99 9.33 78.98 9.66 80 10 C80.99 9.34 81.98 8.68 83 8 C86.1875 7.875 86.1875 7.875 89 8 C89.99 9.98 89.99 9.98 91 12 C91.9075 11.67 92.815 11.34 93.75 11 C97 10 97 10 101 10 C101 9.01 101 8.02 101 7 C101.99 7 102.98 7 104 7 C104 6.34 104 5.68 104 5 C109.41659688 2.63891931 113.36133222 3.171314 119 4 C120.79062191 4.19722792 122.58233469 4.3848014 124.375 4.5625 C125.18710937 4.64628906 125.99921875 4.73007812 126.8359375 4.81640625 C130.53893796 5.15222307 130.53893796 5.15222307 134 4 C136.125 4.4375 136.125 4.4375 138 5 C138.12375 6.093125 138.2475 7.18625 138.375 8.3125 C138.75464801 12.07381802 138.75464801 12.07381802 141 15 C141 15.99 141 16.98 141 18 C138.69 18 136.38 18 134 18 C132.76044505 20.4791099 132.93135484 22.2541937 133 25 C133 25.66 133 26.32 133 27 C133.825 27.78375 134.65 28.5675 135.5 29.375 C138 32 138 32 138 36 C136.515 36.495 136.515 36.495 135 37 C132.67885609 40.35276343 132.45874736 44.02418958 132 48 C131.2575 47.9175 130.515 47.835 129.75 47.75 C126.21842973 48.07105184 125.23369636 49.35265617 123 52 C123.99 52.33 124.98 52.66 126 53 C125.67 53.99 125.34 54.98 125 56 C124.34 56 123.68 56 123 56 C123 56.66 123 57.32 123 58 C123.99 58 124.98 58 126 58 C128.11146301 61.43112739 128.08444564 64.03105481 128 68 C128.33 68.99 128.66 69.98 129 71 C128.34 71 127.68 71 127 71 C127.185625 71.78375 127.37125 72.5675 127.5625 73.375 C128 76 128 76 127 78 C126.64080679 79.99551782 126.30503431 81.99548879 126 84 C122.10593548 82.70197849 121.80594008 81.32440712 119.9375 77.75 C119.43089844 76.79609375 118.92429687 75.8421875 118.40234375 74.859375 C115.81829195 69.59050057 114.65630559 65.95736974 115 60 C115.33 59.67 115.66 59.34 116 59 C116.23287008 57.31816052 116.41264166 55.6287584 116.5625 53.9375 C116.64628906 53.01839844 116.73007812 52.09929687 116.81640625 51.15234375 C116.87699219 50.44207031 116.93757813 49.73179688 117 49 C116.67 49 116.34 49 116 49 C115.01 48.67 114.02 48.34 113 48 C113 47.34 113 46.68 113 46 C111.68 46.33 110.36 46.66 109 47 C109.09539062 47.69867188 109.19078125 48.39734375 109.2890625 49.1171875 C109.39992188 50.02726562 109.51078125 50.93734375 109.625 51.875 C109.74101562 52.77992187 109.85703125 53.68484375 109.9765625 54.6171875 C109.98429688 55.40351562 109.99203125 56.18984375 110 57 C109.01 57.99 109.01 57.99 108 59 C107.01 59 106.02 59 105 59 C105 58.34 105 57.68 105 57 C104.22914063 57.28875 103.45828125 57.5775 102.6640625 57.875 C101.66117188 58.24625 100.65828125 58.6175 99.625 59 C98.62726563 59.37125 97.62953125 59.7425 96.6015625 60.125 C94 61 94 61 92 61 C91.93941406 61.59167969 91.87882813 62.18335938 91.81640625 62.79296875 C91.37987629 66.90978208 90.91328654 70.95544533 90 75 C90.66 75 91.32 75 92 75 C92.33 75.66 92.66 76.32 93 77 C95.42459787 77.83492354 95.42459787 77.83492354 98 78 C98.66 77.34 99.32 76.68 100 76 C102.83026605 79.36936434 104.31091816 82.96089125 106 87 C106.99 88.485 106.99 88.485 108 90 C108 92.33333333 108 94.66666667 108 97 C108.88064927 99.35369807 108.88064927 99.35369807 110 101 C108.68 101.33 107.36 101.66 106 102 C104.02 96.06 104.02 96.06 102 90 C102.0825 91.423125 102.165 92.84625 102.25 94.3125 C102.24158797 100.20933174 101.08252667 105.91250613 98 111 C96.34915746 111.70494052 94.68206297 112.37319351 93 113 C91.21194653 115.46197027 90.34418095 117.97820792 90 121 C91.6706919 123.75503458 91.6706919 123.75503458 94 126 C94.75 128.8125 94.75 128.8125 95 131 C92 133 92 133 89 133 C88.67 130.69 88.34 128.38 88 126 C87.01 126 86.02 126 85 126 C85 124.35 85 122.7 85 121 C82.03 122.485 82.03 122.485 79 124 C78.34 123.01 77.68 122.02 77 121 C76.67 121.66 76.34 122.32 76 123 C75.34 123 74.68 123 74 123 C74 123.66 74 124.32 74 125 C76.97 125.33 79.94 125.66 83 126 C83 126.66 83 127.32 83 128 C82.01 128.66 81.02 129.32 80 130 C80.43713124 132.44793496 80.82609115 133.80435254 82.5 135.6875 C84.84972013 139.3099852 85.34606061 142.7141724 85 147 C83.28122462 151.87455969 81.04322478 156.65217014 77 160 C74.95703125 160.94921875 74.95703125 160.94921875 72.8125 161.6875 C71.73935547 162.06455078 71.73935547 162.06455078 70.64453125 162.44921875 C69.83048828 162.72185547 69.83048828 162.72185547 69 163 C69.33 163.99 69.66 164.98 70 166 C69.67 166.66 69.34 167.32 69 168 C67.68 168 66.36 168 65 168 C65.33 166.02 65.66 164.04 66 162 C64.68 162.33 63.36 162.66 62 163 C62.43696905 167.8066595 63.38081956 169.83321712 67 173 C68.51200062 176.02400124 68.5817049 177.63903834 68 181 C65.5601304 183.35978636 62.86720977 185.19519385 60 187 C60 186.01 60 185.02 60 184 C59.360625 183.71125 58.72125 183.4225 58.0625 183.125 C56 182 56 182 55 180 C54.01 179.67 53.02 179.34 52 179 C51.83312552 181.41645782 51.83312552 181.41645782 52 184 C52.66 184.66 53.32 185.32 54 186 C54 186.99 54 187.98 54 189 C54.598125 189.165 55.19625 189.33 55.8125 189.5 C59.1669314 191.80018153 59.94746678 195.17260647 61 199 C61 199.66 61 200.32 61 201 C60.67 201.33 60.34 201.66 60 202 C61.32 202.99 62.64 203.98 64 205 C63.67 207.31 63.34 209.62 63 212 C67.29 212.66 71.58 213.32 76 214 C76 214.66 76 215.32 76 216 C77.04800781 216 78.09601563 216 79.17578125 216 C84.1171875 216 89.05859375 216 94 216 C94.99 215.67 95.98 215.34 97 215 C97.33 215.99 97.66 216.98 98 218 C94.375 221 94.375 221 91 221 C91 220.01 91 219.02 91 218 C89.68 218.33 88.36 218.66 87 219 C87 219.66 87 220.32 87 221 C86.42636719 220.84909912 85.85273438 220.69819824 85.26171875 220.54272461 C83.11377856 220.02730243 80.99546957 219.64867291 78.8125 219.31640625 C78.03132812 219.19330078 77.25015625 219.07019531 76.4453125 218.94335938 C74.8156937 218.68954494 73.18547685 218.43954083 71.5546875 218.19335938 C70.38292969 218.00676758 70.38292969 218.00676758 69.1875 217.81640625 C68.47980469 217.70756104 67.77210938 217.59871582 67.04296875 217.48657227 C64.81181923 216.95518113 63.00750275 216.09594989 61 215 C61 214.34 61 213.68 61 213 C60.4225 212.731875 59.845 212.46375 59.25 212.1875 C54.06301637 209.44992531 52.82489602 207.5963478 51 202 C50.01 201.67 49.02 201.34 48 201 C47.896875 200.21625 47.79375 199.4325 47.6875 198.625 C47.22404978 195.66954819 47.22404978 195.66954819 44 194 C44 193.01 44 192.02 44 191 C47.82097239 191.53069061 50.06171403 192.49701566 53 195 C52.38125 193.989375 51.7625 192.97875 51.125 191.9375 C47.97822663 185.76669974 47.6723676 178.79445155 47 172 C45.02 172.33 43.04 172.66 41 173 C40.7525 171.9275 40.505 170.855 40.25 169.75 C39.00116854 166.00350563 37.97511342 164.47926118 35 162 C29.31267209 163.37874616 26.5525249 167.70475579 23 172 C22.34 172.66 21.68 173.32 21 174 C20.32059533 176.42715206 20.32059533 176.42715206 19.875 179.125 C19.62363281 180.49011719 19.62363281 180.49011719 19.3671875 181.8828125 C19.24601563 182.58148438 19.12484375 183.28015625 19 184 C19.66 184 20.32 184 21 184 C21.66 185.98 22.32 187.96 23 190 C21.02 190.99 21.02 190.99 19 192 C18.01 189.525 18.01 189.525 17 187 C15.68 187 14.36 187 13 187 C11.84307254 184.48375829 10.69942568 181.96276546 9.5625 179.4375 C9.23701172 178.73302734 8.91152344 178.02855469 8.57617188 177.30273438 C6.5697454 172.81413082 5.45715531 168.89993224 5 164 C4.01 164.33 3.02 164.66 2 165 C1.44828125 164.37222656 0.8965625 163.74445313 0.328125 163.09765625 C-2.2629699 160.76306235 -3.88554417 160.20171211 -7.25 159.4375 C-12.01384205 158.27371577 -16.44317399 156.80553483 -21 155 C-20.67 155.66 -20.34 156.32 -20 157 C-19.01 157.33 -18.02 157.66 -17 158 C-15.625 159.6875 -15.625 159.6875 -15 162 C-17.47770957 168.99588584 -22.52102558 171.97043986 -28.9375 175.125 C-29.93652344 175.62257812 -30.93554688 176.12015625 -31.96484375 176.6328125 C-34.93306364 177.96984849 -37.89513832 179.02828472 -41 180 C-41 180.33 -41 180.66 -41 181 C-37.04 180.67 -33.08 180.34 -29 180 C-29 186.70819461 -30.18475968 189.69892489 -34 195 C-35.66543187 196.61508161 -37.39926695 198.03246572 -39.22265625 199.46484375 C-43.2532411 202.94620605 -47.2805063 207.58324027 -48 213 C-47.65349834 215.37122312 -47.65349834 215.37122312 -47 217.8125 C-46.07616414 222.28098269 -45.41846435 225.58834793 -47 230 C-49.078125 231.66796875 -49.078125 231.66796875 -51.5625 233.375 C-55.0586703 235.7107364 -55.0586703 235.7107364 -56.59375 239.44140625 C-56.56558185 241.69133758 -56.40616167 243.78867535 -56 246 C-57.32 246.33 -58.64 246.66 -60 247 C-60.0825 247.88171875 -60.165 248.7634375 -60.25 249.671875 C-61.5591098 255.48104975 -65.53996972 259.23192526 -70 263 C-74.77492843 265.17255336 -79.80773466 265.26627002 -85 265 C-88.89140747 257.51652409 -90.8171928 249.23362145 -93.03515625 241.13671875 C-93.86543047 238.09482128 -93.86543047 238.09482128 -95.13671875 235.8359375 C-96.18226111 233.61238587 -96.10314101 232.34908137 -95.75 229.9375 C-95.66234375 229.26589844 -95.5746875 228.59429687 -95.484375 227.90234375 C-95 226 -95 226 -93 223 C-92.65668285 216.99194994 -94.28628991 212.72654011 -98 208 C-100.23551759 204.64672361 -100.17283528 204.09256343 -99.625 200.3125 C-99.51414062 199.50425781 -99.40328125 198.69601563 -99.2890625 197.86328125 C-99.19367188 197.24839844 -99.09828125 196.63351563 -99 196 C-100.134375 195.71125 -101.26875 195.4225 -102.4375 195.125 C-103.613125 194.75375 -104.78875 194.3825 -106 194 C-106.33 193.34 -106.66 192.68 -107 192 C-108.299375 192.2165625 -108.299375 192.2165625 -109.625 192.4375 C-111.08256912 192.63085101 -112.54108799 192.81705707 -114 193 C-115.10085937 193.15339844 -116.20171875 193.30679688 -117.3359375 193.46484375 C-128.09318219 194.66901293 -128.09318219 194.66901293 -132.125 191.9375 C-135.01963573 189.31400737 -137.10767786 186.40617985 -139 183 C-139 182.34 -139 181.68 -139 181 C-139.99 180.67 -140.98 180.34 -142 180 C-143.125 175.25 -143.125 175.25 -142 173 C-142.08393228 171.14480726 -142.19179586 169.29066357 -142.3125 167.4375 C-142.37647749 160.77584359 -140.44485841 156.87365652 -136 152 C-135.0925 151.29875 -134.185 150.5975 -133.25 149.875 C-130.19778932 147.3314911 -130.02643019 144.76357737 -129 141 C-126.9375 139.3125 -126.9375 139.3125 -125 138 C-124.20376178 135.90584196 -124.20376178 135.90584196 -124 134 C-125.32 134 -126.64 134 -128 134 C-128.77026643 129.28211812 -129.19130096 124.78252409 -129 120 C-127.26043342 118.26043342 -124.8063378 118.62809614 -122.4375 118.4375 C-121.42558594 118.35371094 -120.41367188 118.26992187 -119.37109375 118.18359375 C-118.58863281 118.12300781 -117.80617187 118.06242187 -117 118 C-117.27034634 115.56282742 -117.27034634 115.56282742 -118 113 C-119.485 112.01 -119.485 112.01 -121 111 C-121 110.01 -121 109.02 -121 108 C-119.68 108 -118.36 108 -117 108 C-117 107.34 -117 106.68 -117 106 C-117.66 106 -118.32 106 -119 106 C-120.33783393 105.68521554 -121.67203709 105.35412344 -123 105 C-122.41196203 101.97580475 -121.77321882 98.98241547 -121 96 C-121.33 96.99 -121.66 97.98 -122 99 C-123.25 100.6875 -123.25 100.6875 -125 102 C-127.6875 102.1875 -127.6875 102.1875 -130 102 C-129.7357513 96.62694301 -129.7357513 96.62694301 -129 94 C-126.4375 92 -126.4375 92 -124 91 C-124.33 89.35 -124.66 87.7 -125 86 C-123.02 85.01 -121.04 84.02 -119 83 C-117.78679649 85.18376632 -117.00634964 86.96462344 -116.5625 89.4375 C-115.90258492 92.44377979 -114.74907538 94.48133146 -113 97 C-112.34 97.33 -111.68 97.66 -111 98 C-110.67 98.99 -110.34 99.98 -110 101 C-109.608125 100.360625 -109.21625 99.72125 -108.8125 99.0625 C-106.61527704 96.56221181 -105.24208567 96.35049575 -102 96 C-102.33 95.34 -102.66 94.68 -103 94 C-103.039992 92.00039988 -103.04346799 89.99952758 -103 88 C-101.02 87.505 -101.02 87.505 -99 87 C-99 86.01 -99 85.02 -99 84 C-99.66 84 -100.32 84 -101 84 C-101 84.66 -101 85.32 -101 86 C-104.75 87.125 -104.75 87.125 -107 86 C-107.93730205 81.96960118 -108.0982335 78.12580711 -108 74 C-107.34 74 -106.68 74 -106 74 C-106 73.34 -106 72.68 -106 72 C-105.34 72 -104.68 72 -104 72 C-104 71.34 -104 70.68 -104 70 C-103.21625 69.236875 -102.4325 68.47375 -101.625 67.6875 C-97.27476451 63.23368747 -96.7151956 59.07916259 -96 53 C-94.35 52.34 -92.7 51.68 -91 51 C-91 50.34 -91 49.68 -91 49 C-81.70960203 44.18963838 -81.70960203 44.18963838 -76 46 C-75.34 46.33 -74.68 46.66 -74 47 C-74 47.66 -74 48.32 -74 49 C-73.34 49 -72.68 49 -72 49 C-72 49.66 -72 50.32 -72 51 C-70.96875 51.0825 -69.9375 51.165 -68.875 51.25 C-64.64826678 52.0680774 -62.2975373 53.26545687 -59 56 C-59 56.99 -59 57.98 -59 59 C-58.34 58.67 -57.68 58.34 -57 58 C-57.495 55.03 -57.495 55.03 -58 52 C-56.35 52.33 -54.7 52.66 -53 53 C-52.67 53.99 -52.34 54.98 -52 56 C-51.505 55.01 -51.505 55.01 -51 54 C-50.34 54 -49.68 54 -49 54 C-49 53.34 -49 52.68 -49 52 C-47.6696875 51.566875 -47.6696875 51.566875 -46.3125 51.125 C-43.49617576 50.16851252 -40.74916844 49.13201054 -38 48 C-38.66 47.34 -39.32 46.68 -40 46 C-40 45.01 -40 44.02 -40 43 C-36.37 43.99 -32.74 44.98 -29 46 C-29.165 44.845 -29.33 43.69 -29.5 42.5 C-30.03238311 38.30092197 -30.07552446 34.22936959 -30 30 C-28.68 30 -27.36 30 -26 30 C-25.01 30.99 -25.01 30.99 -24 32 C-24 31.34 -24 30.68 -24 30 C-22.68 30.66 -21.36 31.32 -20 32 C-19.4225 31.071875 -18.845 30.14375 -18.25 29.1875 C-16.28365288 26.40184158 -14.81962028 24.81261304 -12 23 C-12.99 21.515 -12.99 21.515 -14 20 C-11.22388067 16.40132679 -8.38751913 13.04008127 -5 10 C-4.01 10 -3.02 10 -2 10 C-1.34 9.01 -0.68 8.02 0 7 C-0.29369827 5.65737935 -0.6278958 4.32303717 -1 3 C-0.67 2.01 -0.34 1.02 0 0 Z M104 7 C104 7.99 104 8.98 104 10 C104.99 9.67 105.98 9.34 107 9 C106.34 9 105.68 9 105 9 C104.67 8.34 104.34 7.68 104 7 Z M17 18 C18 20 18 20 18 20 Z M-16 30 C-15 32 -15 32 -15 32 Z M-24 32 C-23.67 32.99 -23.34 33.98 -23 35 C-22.67 34.01 -22.34 33.02 -22 32 C-22.66 32 -23.32 32 -24 32 Z M-21 40 C-20 42 -20 42 -20 42 Z M-17 50 C-16 52 -16 52 -16 52 Z M-67 62 C-66.67 63.65 -66.34 65.3 -66 67 C-65.67 66.01 -65.34 65.02 -65 64 C-63.68 64.33 -62.36 64.66 -61 65 C-61 64.01 -61 63.02 -61 62 C-62.98 62 -64.96 62 -67 62 Z M-84 64 C-84.66 66.31 -85.32 68.62 -86 71 C-83.47411298 68.63707344 -82.11179163 67.33537489 -81 64 C-81.99 64 -82.98 64 -84 64 Z M-88.625 72.1875 C-90.28648381 73.96300179 -90.28648381 73.96300179 -89.8125 76.5625 C-89.15372967 79.14441272 -89.15372967 79.14441272 -87 81 C-87.515625 81.598125 -88.03125 82.19625 -88.5625 82.8125 C-89.036875 83.534375 -89.51125 84.25625 -90 85 C-89.67 85.99 -89.34 86.98 -89 88 C-89 87.34 -89 86.68 -89 86 C-88.34 86.33 -87.68 86.66 -87 87 C-87 87.66 -87 88.32 -87 89 C-87.99 89 -88.98 89 -90 89 C-91.02028865 90.31787285 -92.01971384 91.65210653 -93 93 C-93.99 93.33 -94.98 93.66 -96 94 C-95.34 94 -94.68 94 -94 94 C-93.67 94.66 -93.34 95.32 -93 96 C-92.01 95.34 -91.02 94.68 -90 94 C-88.0103005 93.60986284 -86.00980131 93.26797351 -84 93 C-83.95101562 92.38511719 -83.90203125 91.77023438 -83.8515625 91.13671875 C-83.77679688 90.32847656 -83.70203125 89.52023438 -83.625 88.6875 C-83.52058594 87.48673828 -83.52058594 87.48673828 -83.4140625 86.26171875 C-83 84 -83 84 -81 81 C-81.99 80.34 -82.98 79.68 -84 79 C-84.98515378 76.37643538 -85.42238929 73.75475877 -86 71 C-87.20087736 70.9016639 -87.20087736 70.9016639 -88.625 72.1875 Z M-71 76 C-70.67 76.99 -70.34 77.98 -70 79 C-70 78.01 -70 77.02 -70 76 C-70.33 76 -70.66 76 -71 76 Z M-80 81 C-78.35 81 -76.7 81 -75 81 C-75 80.34 -75 79.68 -75 79 C-77.32357511 78.81509993 -77.32357511 78.81509993 -80 81 Z M-99 87 C-98.67 88.32 -98.34 89.64 -98 91 C-97.67 90.34 -97.34 89.68 -97 89 C-97.66 88.34 -98.32 87.68 -99 87 Z M47 87 C48 89 48 89 48 89 Z M-41 114 C-40.62152944 117.31161739 -40.16041986 118.8152741 -37.9375 121.375 C-35.45087106 124.74398114 -35.67923451 126.91024006 -36 131 C-33.60931266 132.10636395 -33.60931266 132.10636395 -31 133 C-30.34 132.67 -29.68 132.34 -29 132 C-29.66498383 127.61110675 -31.18757677 124.0188515 -33 120 C-33.66 120 -34.32 120 -35 120 C-35.6875 118.1875 -35.6875 118.1875 -36 116 C-34.5625 114.375 -34.5625 114.375 -33 113 C-33 112.34 -33 111.68 -33 111 C-37.26826873 111 -37.93882432 111.37613513 -41 114 Z M-67 113 C-69.4634897 117.23720229 -70.2168228 119.26970211 -69 124 C-67.93072266 123.87431641 -67.93072266 123.87431641 -66.83984375 123.74609375 C-61.30980427 123.15810839 -56.45971529 122.90805694 -51 124 C-51 122.68 -51 121.36 -51 120 C-53.63063481 117.55160394 -53.63063481 117.55160394 -57 116 C-58.66965451 116.31802943 -60.33678518 116.64984951 -62 117 C-64.25 115.0625 -64.25 115.0625 -66 113 C-66.33 113 -66.66 113 -67 113 Z M-58 112 C-58.66 112.66 -59.32 113.32 -60 114 C-59.01 114.33 -58.02 114.66 -57 115 C-57.33 114.01 -57.66 113.02 -58 112 Z M-95 116 C-93.95125002 118.62187494 -93.35068687 119.79371361 -90.875 121.25 C-90.25625 121.4975 -89.6375 121.745 -89 122 C-89 122.66 -89 123.32 -89 124 C-87.68 124.33 -86.36 124.66 -85 125 C-85.71563266 122.9837767 -85.71563266 122.9837767 -87 121 C-88.32594105 120.63837971 -89.65938457 120.30271961 -91 120 C-91.33 119.01 -91.66 118.02 -92 117 C-92.99 116.67 -93.98 116.34 -95 116 Z M-101 118 C-101.66 118.66 -102.32 119.32 -103 120 C-103.78375 119.9175 -104.5675 119.835 -105.375 119.75 C-106.674375 119.87375 -106.674375 119.87375 -108 120 C-110.26916093 122.77867705 -110.26916093 122.77867705 -112 126 C-112.99 127.485 -112.99 127.485 -114 129 C-114.2475 129.680625 -114.495 130.36125 -114.75 131.0625 C-116.58137115 133.90112528 -118.83025969 134.17311122 -122 135 C-120.22409072 136.17016183 -120.22409072 136.17016183 -118 137 C-116.00017603 136.58652982 -116.00017603 136.58652982 -114 135.625 C-108.35787958 133.48683417 -102.95639259 133.72788054 -97 134 C-97 135.98 -97 137.96 -97 140 C-93.08936776 141.47047336 -93.08936776 141.47047336 -89 142 C-89 142.66 -89 143.32 -89 144 C-87.02 144.66 -85.04 145.32 -83 146 C-82.67 144.68 -82.34 143.36 -82 142 C-75.40824393 142.88735178 -75.40824393 142.88735178 -73.1171875 143.51953125 C-70.50561165 144.11219514 -68.05164673 144.20671191 -65.375 144.25 C-64.41335938 144.27578125 -63.45171875 144.3015625 -62.4609375 144.328125 C-61.64882813 144.21984375 -60.83671875 144.1115625 -60 144 C-57.5705484 140.3558226 -57.83820425 138.28758728 -58 134 C-58.66 134.66 -59.32 135.32 -60 136 C-59.505 136.99 -59.505 136.99 -59 138 C-59.99 138 -60.98 138 -62 138 C-62.66 136.68 -63.32 135.36 -64 134 C-66.97 134.495 -66.97 134.495 -70 135 C-70.9765625 133.2421875 -71.953125 131.484375 -72.9296875 129.7265625 C-74.00897274 127.8387386 -74.00897274 127.8387386 -76 126 C-76.2981424 129.7763932 -76.2981424 129.7763932 -75 132 C-75.66 132 -76.32 132 -77 132 C-77 132.99 -77 133.98 -77 135 C-79.475 134.01 -79.475 134.01 -82 133 C-82 131.68 -82 130.36 -82 129 C-82.66 129 -83.32 129 -84 129 C-84.495 128.01 -84.495 128.01 -85 127 C-85.66 127 -86.32 127 -87 127 C-87.103125 127.598125 -87.20625 128.19625 -87.3125 128.8125 C-88.11209475 131.35666511 -88.81974318 132.4657452 -91 134 C-93.1875 133.6875 -93.1875 133.6875 -95 133 C-95 132.34 -95 131.68 -95 131 C-93.35 130.67 -91.7 130.34 -90 130 C-91.56186718 125.78295862 -94.55477218 123.7421201 -98 121 C-99.01680311 120.01709032 -100.02738219 119.02665213 -101 118 Z M-35 147 C-34.38722388 149.96175123 -33.74627478 151.38058783 -32 154 C-31.34 154 -30.68 154 -30 154 C-29.67 154.99 -29.34 155.98 -29 157 C-27.68 157 -26.36 157 -25 157 C-24.67 156.01 -24.34 155.02 -24 154 C-27.68564084 151.54420303 -27.68564084 151.54420303 -32 151 C-32.33 149.68 -32.66 148.36 -33 147 C-33.66 147 -34.32 147 -35 147 Z M-58 151 C-57.49281075 155.05751397 -56.04734696 158.17080742 -54.171875 161.73828125 C-53.33066014 163.36182593 -52.53342798 165.00844522 -51.765625 166.66796875 C-51.34796875 167.56128906 -50.9303125 168.45460937 -50.5 169.375 C-50.1184375 170.20773438 -49.736875 171.04046875 -49.34375 171.8984375 C-47.81593624 174.28786715 -46.61164083 174.992969 -44 176 C-44.39474947 170.47350742 -46.4716491 168.13075228 -50 164 C-51.3125 160.625 -51.3125 160.625 -52 158 C-52.66 158 -53.32 158 -54 158 C-54.433125 156.5459375 -54.433125 156.5459375 -54.875 155.0625 C-55.64214682 151.89335797 -55.64214682 151.89335797 -58 151 Z M53 195 C54 197 54 197 54 197 Z M-61 202 C-61 202.99 -61 203.98 -61 205 C-60.34 205 -59.68 205 -59 205 C-58.67 204.01 -58.34 203.02 -58 202 C-58.99 202 -59.98 202 -61 202 Z " fill="#FFFFFF" transform="translate(370,22)"/>
<path d="M0 0 C0 0.99 0 1.98 0 3 C0.99 3.33 1.98 3.66 3 4 C3 4.66 3 5.32 3 6 C3.82951172 6.38865234 3.82951172 6.38865234 4.67578125 6.78515625 C7.32044769 8.16749451 9.72776879 9.74802436 12.1875 11.4375 C13.06792969 12.03433594 13.94835937 12.63117187 14.85546875 13.24609375 C17 15 17 15 18 18 C19.546875 17.7525 19.546875 17.7525 21.125 17.5 C24.48400046 17.06658059 27.62506169 17 31 17 C31.99 16.505 31.99 16.505 33 16 C33.495 17.98 33.495 17.98 34 20 C34.99 19.505 34.99 19.505 36 19 C36 19.66 36 20.32 36 21 C36.5775 21.0825 37.155 21.165 37.75 21.25 C40.6159304 22.20531013 41.9990764 23.78469173 44 26 C44.33 22.7 44.66 19.4 45 16 C43.35 16 41.7 16 40 16 C39.1875 13.3125 39.1875 13.3125 39 10 C41.3125 7.3125 41.3125 7.3125 44 5 C44.66 4.01 45.32 3.02 46 2 C49.26122495 1.57462283 51.29314987 1.64657493 54.25 3.125 C56 5 56 5 57 8.0625 C57.70174028 11.1183817 57.70174028 11.1183817 60.125 12.375 C60.74375 12.58125 61.3625 12.7875 62 13 C62.5775 12.484375 63.155 11.96875 63.75 11.4375 C66 10 66 10 68.25 10.3125 C68.8275 10.539375 69.405 10.76625 70 11 C69.731875 11.515625 69.46375 12.03125 69.1875 12.5625 C68.795625 13.366875 68.40375 14.17125 68 15 C67.4225 16.093125 66.845 17.18625 66.25 18.3125 C64.74899217 22.74047311 65.39746116 24.69844837 67 29 C67 29.66 67 30.32 67 31 C67.66 30.34 68.32 29.68 69 29 C69.99 29 70.98 29 72 29 C71.53915076 26.31171277 70.98521323 23.96433779 69.9375 21.4375 C69 19 69 19 69 15 C69.99 15 70.98 15 72 15 C72.33 14.01 72.66 13.02 73 12 C75.375 11.375 75.375 11.375 78 11 C78.99 11.99 78.99 11.99 80 13 C82.32275177 13.40047444 84.65739357 13.7397104 87 14 C87.33 14.99 87.66 15.98 88 17 C88.71542969 16.79503906 89.43085938 16.59007813 90.16796875 16.37890625 C93.54883068 15.92657024 95.21648023 16.5752513 98.3125 17.9375 C99.19550781 18.31777344 100.07851562 18.69804688 100.98828125 19.08984375 C101.65214844 19.39019531 102.31601563 19.69054687 103 20 C103.33 22.97 103.66 25.94 104 29 C104.99 29 105.98 29 107 29 C111 35.5 111 35.5 111 40 C110.01 40.99 110.01 40.99 109 42 C110.98 43.98 112.96 45.96 115 48 C113.79618552 50.49361571 112.54571278 52.68143083 111 55 C110.34 55 109.68 55 109 55 C108.01 58.3 107.02 61.6 106 65 C102.56244012 63.75865893 99.65119317 62.5565077 97 60 C96.25 57.3125 96.25 57.3125 96 55 C94.02 55 92.04 55 90 55 C89.67 53.68 89.34 52.36 89 51 C91.07553648 50.4465236 92.84365964 50 95 50 C96.38232443 48.37373596 97.71937515 46.7074998 99 45 C98.34 45 97.68 45 97 45 C96.01 45 95.02 45 94 45 C94.33 42.03 94.66 39.06 95 36 C93.68 36 92.36 36 91 36 C90.87625 36.556875 90.7525 37.11375 90.625 37.6875 C89.30578514 42.56859499 87.80247448 45.57777297 84 49 C84.66 51.31 85.32 53.62 86 56 C84.56589632 56.24954005 83.12739928 56.47392642 81.6875 56.6875 C80.88699219 56.81511719 80.08648437 56.94273438 79.26171875 57.07421875 C77 57 77 57 75.39453125 55.51953125 C74.93433594 55.01808594 74.47414063 54.51664063 74 54 C73.01 54 72.02 54 71 54 C70.67 54.99 70.34 55.98 70 57 C69.195625 57.309375 68.39125 57.61875 67.5625 57.9375 C64.91977032 58.75159396 64.91977032 58.75159396 63.8125 60.8125 C63.4103125 61.8953125 63.4103125 61.8953125 63 63 C62.443125 64.36125 62.443125 64.36125 61.875 65.75 C61.58625 66.4925 61.2975 67.235 61 68 C61.66 68 62.32 68 63 68 C63 69.65 63 71.3 63 73 C63.7425 73.0825 64.485 73.165 65.25 73.25 C68.55699631 74.15190808 69.68452365 75.53513808 72 78 C72.721875 78.268125 73.44375 78.53625 74.1875 78.8125 C76 80 76 80 76.8125 83.4375 C77 87 77 87 76 90 C76.66 90 77.32 90 78 90 C78.33 87.03 78.66 84.06 79 81 C81.475 80.01 81.475 80.01 84 79 C83.90460938 78.37351562 83.80921875 77.74703125 83.7109375 77.1015625 C83.60007813 76.28429687 83.48921875 75.46703125 83.375 74.625 C83.25898438 73.81289062 83.14296875 73.00078125 83.0234375 72.1640625 C83.01570312 71.44992188 83.00796875 70.73578125 83 70 C83.66 69.34 84.32 68.68 85 68 C85.67651207 65.80295489 85.67651207 65.80295489 86.125 63.375 C86.29257813 62.55773437 86.46015625 61.74046875 86.6328125 60.8984375 C86.75398437 60.27195313 86.87515625 59.64546875 87 59 C89.64 59.33 92.28 59.66 95 60 C95.103125 60.639375 95.20625 61.27875 95.3125 61.9375 C95.539375 62.618125 95.76625 63.29875 96 64 C96.99 64.33 97.98 64.66 99 65 C99 66.98 99 68.96 99 71 C99.99 71 100.98 71 102 71 C102.99 69.02 102.99 69.02 104 67 C104.66 67 105.32 67 106 67 C108.03468208 74.50289017 108.03468208 74.50289017 107.8125 77.6875 C108.10287089 81.26874096 110.44711656 82.62946538 113 85 C114.4375 86.8125 114.4375 86.8125 115 89 C114.54649162 91.76906881 113.81002563 94.29991456 113 97 C113.99 97 114.98 97 116 97 C116.33 99.31 116.66 101.62 117 104 C114 104 114 104 111 103 C109.33637583 102.65179959 107.67004829 102.31595508 106 102 C107.875 97.25 107.875 97.25 109 95 C108.2575 95.309375 107.515 95.61875 106.75 95.9375 C104.49307824 96.8094925 102.3549847 97.47667007 100 98 C99.67 99.65 99.34 101.3 99 103 C100.98 103 102.96 103 105 103 C105.33 103.99 105.66 104.98 106 106 C104.59546357 106.89434157 103.17578131 107.76493192 101.75 108.625 C100.96109375 109.11226563 100.1721875 109.59953125 99.359375 110.1015625 C97 111 97 111 94.83984375 110.109375 C94.23269531 109.74328125 93.62554687 109.3771875 93 109 C90.75 109.5 90.75 109.5 89 111 C88.814375 111.9590625 88.814375 111.9590625 88.625 112.9375 C88 115 88 115 85 116.625 C84.01 117.07875 83.02 117.5325 82 118 C81.67 118.66 81.34 119.32 81 120 C80.34 120 79.68 120 79 120 C78.96003906 120.56847656 78.92007813 121.13695312 78.87890625 121.72265625 C78.00515275 128.18411733 78.00515275 128.18411733 74.86328125 130.734375 C74.04214844 131.25515625 73.22101563 131.7759375 72.375 132.3125 C69.88327242 133.86675964 69.88327242 133.86675964 68 136 C67.21952532 140.10395297 67.45135827 143.87502702 68 148 C66.68 148 65.36 148 64 148 C63.67 145.36 63.34 142.72 63 140 C60.36 139.67 57.72 139.34 55 139 C54.67 139.66 54.34 140.32 54 141 C53.39671875 140.97679687 52.7934375 140.95359375 52.171875 140.9296875 C51.37265625 140.91164062 50.5734375 140.89359375 49.75 140.875 C48.96109375 140.85179687 48.1721875 140.82859375 47.359375 140.8046875 C44.75423871 141.02034448 43.1930922 141.59505031 41 143 C39.45907335 147.23754829 39.50619196 152.53061877 40 157 C40.66 157.99 41.32 158.98 42 160 C44.94091587 159.81584568 44.94091587 159.81584568 48 159 C49.43637698 157.04836882 49.43637698 157.04836882 50 155 C52.31 155 54.62 155 57 155 C56.01 158.3 55.02 161.6 54 165 C56.31 165.33 58.62 165.66 61 166 C61.75059087 168.33517159 62.09210304 169.66228886 61.4375 172.0625 C61.293125 172.701875 61.14875 173.34125 61 174 C61.66 174.99 62.32 175.98 63 177 C65.13253645 177.47687303 65.13253645 177.47687303 67.5 177.375 C68.2940625 177.38273438 69.088125 177.39046875 69.90625 177.3984375 C70.5971875 177.26695312 71.288125 177.13546875 72 177 C72.66 176.01 73.32 175.02 74 174 C77.06137323 171.99427271 79.37751483 171.57878079 83 172 C84.19625 172.515625 85.3925 173.03125 86.625 173.5625 C89.90487299 175.39987018 89.90487299 175.39987018 93 174 C95.6875 174.4375 95.6875 174.4375 98 175 C98 176.32 98 177.64 98 179 C99.32 179.33 100.64 179.66 102 180 C102 180.66 102 181.32 102 182 C102.61488281 182.12117187 103.22976562 182.24234375 103.86328125 182.3671875 C105.07564453 182.61855469 105.07564453 182.61855469 106.3125 182.875 C107.51326172 183.11863281 107.51326172 183.11863281 108.73828125 183.3671875 C111.68275076 184.19102871 113.53511513 185.26597126 115.1875 187.875 C116 190 116 190 116 194 C120.70249693 195.60157504 125.39830163 197.11483824 130.1875 198.4375 C134.48932019 199.74616605 137.70722775 200.88053155 141 204 C141.6875 207.3125 141.6875 207.3125 141 211 C139.76700638 212.65480722 138.52884244 214.30688664 137.234375 215.9140625 C135.16659126 219.40835528 134.99183642 223.21384275 134.4453125 227.18359375 C133.89554208 230.6606505 133.09716978 233.15384102 131 236 C128.0625 237.1875 128.0625 237.1875 125 238 C122.65373496 239.00966359 122.65373496 239.00966359 121 241 C120.56802722 242.86080581 120.14128742 244.72315262 119.75390625 246.59375 C118.21840116 251.49463672 115.36456859 256.13855419 112 260 C110.68 260 109.36 260 108 260 C108.2475 260.7425 108.495 261.485 108.75 262.25 C109 265 109 265 107.3125 267.3125 C105 269 105 269 101 269 C100.855625 269.7425 100.71125 270.485 100.5625 271.25 C100.09812508 273.52027739 99.58136431 275.75759479 99 278 C98.34 278 97.68 278 97 278 C97.04125 278.78375 97.0825 279.5675 97.125 280.375 C97 283 97 283 95 285 C95.99 285.66 96.98 286.32 98 287 C97.4337081 289.45393156 96.76153491 291.5484697 95.75 293.875 C94.69025907 297.04272366 94.69025907 297.04272366 96.125 300.1875 C97.8970407 302.84556105 99.31136582 304.33119258 102 306 C100.375 307.5625 100.375 307.5625 98 309 C93.05631763 308.89252864 89.76787388 307.1398949 86 304 C86 302.68 86 301.36 86 300 C85.34 300 84.68 300 84 300 C80.15625 287.7 80.15625 287.7 81.9375 282 C82.288125 281.34 82.63875 280.68 83 280 C82.34 279.67 81.68 279.34 81 279 C81.01740234 277.98679687 81.01740234 277.98679687 81.03515625 276.953125 C81.04417969 276.06109375 81.05320313 275.1690625 81.0625 274.25 C81.07990234 272.92742187 81.07990234 272.92742187 81.09765625 271.578125 C81.10705847 269.07603892 81.10705847 269.07603892 80.4362793 267.05712891 C79.84221245 264.25600564 80.75743931 262.10548364 81.50195312 259.39941406 C82.49528041 254.6139138 82.285834 249.74245214 82.25 244.875 C82.25773438 243.81667969 82.26546875 242.75835937 82.2734375 241.66796875 C82.31613647 234.10836153 82.31613647 234.10836153 80 227 C78.33416278 225.49490146 78.33416278 225.49490146 76.3125 224.4375 C71.22059745 220.97797423 69.08034637 216.19624051 66.4453125 210.828125 C65.15977872 207.95453433 65.15977872 207.95453433 63 206 C62.67710347 199.41291084 63.57430228 193.96214593 68 189 C68.66 189 69.32 189 70 189 C68.78955868 184.39257135 68.78955868 184.39257135 67 180 C66.67 180.66 66.34 181.32 66 182 C63.69 181.34 61.38 180.68 59 180 C59 179.34 59 178.68 59 178 C58.01 177.67 57.02 177.34 56 177 C55.731875 176.175 55.46375 175.35 55.1875 174.5 C54.795625 173.675 54.40375 172.85 54 172 C52.01178687 171.60235737 50.00875442 171.27571139 48 171 C47.175 170.319375 46.35 169.63875 45.5 168.9375 C43.17287091 166.71328878 43.17287091 166.71328878 40.3125 167.0625 C34.76225727 166.95777844 29.46161183 164.07494272 25.234375 160.51171875 C23.37765291 158.23782176 23.40143371 155.86738365 23 153 C22.37774395 151.31624835 21.72455635 149.64232772 21 148 C20.34 148 19.68 148 19 148 C19 148.33 19 148.66 19 149 C19 150.32 19 151.64 19 153 C18.34 153 17.68 153 17 153 C11.64377033 147.21527196 9.76108704 140.47394138 8.0546875 132.94140625 C6.79453811 129.42698962 6.16444973 129.52958725 3 128 C-1.0166084 118.02373077 -0.64265316 108.62802125 3.35546875 98.87890625 C4.40697606 95.81360312 4.36791714 93.18861522 4 90 C2.60042803 87.71515694 2.60042803 87.71515694 1 86 C1 85.34 1 84.68 1 84 C1.66 84 2.32 84 3 84 C2.67 82.9275 2.34 81.855 2 80.75 C1 77 1 77 1 73 C0.51402344 72.52046875 0.02804688 72.0409375 -0.47265625 71.546875 C-2.53240497 69.46078678 -2.36130619 68.13640077 -2.4375 65.25 C-2.89635195 59.08698853 -4.62016939 55.37983061 -9.0625 50.9375 C-13.82101698 49.41882437 -18.23859824 50.84091971 -23 52 C-23.66 51.01 -24.32 50.02 -25 49 C-24.731875 49.721875 -24.46375 50.44375 -24.1875 51.1875 C-24 54 -24 54 -26.4375 56.8125 C-27.283125 57.534375 -28.12875 58.25625 -29 59 C-29.99 58.34 -30.98 57.68 -32 57 C-32.6290625 57.34933594 -33.258125 57.69867188 -33.90625 58.05859375 C-39.40978315 60.98441785 -43.76883393 62.65382411 -50 63 C-50 62.34 -50 61.68 -50 61 C-49.360625 60.773125 -48.72125 60.54625 -48.0625 60.3125 C-39.99808927 56.97177074 -39.99808927 56.97177074 -34 51 C-34.61875 50.95875 -35.2375 50.9175 -35.875 50.875 C-38 50 -38 50 -39.25 47.4375 C-40.38192235 42.24952258 -41.08294536 37.99261945 -38.4375 33.125 C-35.4126753 30.48797334 -32.92008548 29.72594176 -29 29 C-28.34 29.33 -27.68 29.66 -27 30 C-27 29.01 -27 28.02 -27 27 C-28.65 27 -30.3 27 -32 27 C-33.125 25.3125 -33.125 25.3125 -34 23 C-33.25 20.3125 -33.25 20.3125 -32 18 C-29.29120665 16.64560332 -26.99066732 16.93498549 -24 17 C-24.02320312 16.37351562 -24.04640625 15.74703125 -24.0703125 15.1015625 C-24.08835937 14.28429688 -24.10640625 13.46703125 -24.125 12.625 C-24.14820312 11.81289063 -24.17140625 11.00078125 -24.1953125 10.1640625 C-24 8 -24 8 -22 6 C-20 5.33333333 -18 4.66666667 -16 4 C-14.70225543 3.30286449 -13.41084037 2.59385564 -12.125 1.875 C-7.90514223 -0.32453977 -4.70439321 -0.33602809 0 0 Z M85 18 C82.41251961 19.21116103 80.88384682 19.9277685 79 22 C77.93504144 25.93020421 77.13353977 30.26707954 79 34 C79.66 34 80.32 34 81 34 C81.33 35.65 81.66 37.3 82 39 C83.64555699 37.77190909 83.64555699 37.77190909 85 36 C84.74853421 33.86254078 84.54074221 32.54074221 83 31 C82.52941176 24.76470588 82.52941176 24.76470588 84.5 21.5625 C84.995 21.046875 85.49 20.53125 86 20 C85.67 19.34 85.34 18.68 85 18 Z M46 27 C47 29 47 29 47 29 Z M44 31 C44.33 31.66 44.66 32.32 45 33 C46.89533342 33.46523063 46.89533342 33.46523063 49.0625 33.625 C50.361875 33.74875 51.66125 33.8725 53 34 C53 33.01 53 32.02 53 31 C50.03 31 47.06 31 44 31 Z M58 32 C59.15684329 34.0995533 59.15684329 34.0995533 61 36 C63.62625139 36.33425735 63.62625139 36.33425735 66 36 C66 35.01 66 34.02 66 33 C63.21081851 31.89459074 63.21081851 31.89459074 61 32 C60.01 32 59.02 32 58 32 Z M32 35 C31.67 35.99 31.34 36.98 31 38 C32.65 38 34.3 38 36 38 C34.68 37.01 33.36 36.02 32 35 Z M80 39 C81 41 81 41 81 41 Z M106 50 C106.33 51.32 106.66 52.64 107 54 C107.33 53.34 107.66 52.68 108 52 C107.34 51.34 106.68 50.68 106 50 Z M33 54 C32.67 54.66 32.34 55.32 32 56 C32.99 55.67 33.98 55.34 35 55 C34.34 54.67 33.68 54.34 33 54 Z M50 83 C51 86 51 86 51 86 Z M97 95 C96.67 95.66 96.34 96.32 96 97 C96.99 97 97.98 97 99 97 C99 96.34 99 95.68 99 95 C98.34 95 97.68 95 97 95 Z M62 97 C61.34 97.66 60.68 98.32 60 99 C60.99 99 61.98 99 63 99 C63 99.66 63 100.32 63 101 C63.99 101 64.98 101 66 101 C65.67 99.68 65.34 98.36 65 97 C64.01 97 63.02 97 62 97 Z M68 103 C68.33 104.65 68.66 106.3 69 108 C69.99 106.68 70.98 105.36 72 104 C70.68 103.67 69.36 103.34 68 103 Z M62 105 C63 107 63 107 63 107 Z M61 108 C62 111 62 111 62 111 Z M13 135 C14 138 14 138 14 138 Z M14 138 C15 140 15 140 15 140 Z M16 142 C17 144 17 144 17 144 Z " fill="#FFFFFF" transform="translate(59,29)"/>
<path d="M0 0 C0.75 2 0.75 2 1 4 C0.67 4.66 0.34 5.32 0 6 C1.0725 5.835 2.145 5.67 3.25 5.5 C10.15789474 4.57894737 10.15789474 4.57894737 13 6 C13.33 5.01 13.66 4.02 14 3 C16.3125 1.875 16.3125 1.875 19 1 C19.61875 0.79375 20.2375 0.5875 20.875 0.375 C25.08918439 -0.3686796 28.67716955 -0.5984233 32.625 1.1875 C35.33255891 3.25379496 37.66126764 5.52762579 40 8 C39.67 8.598125 39.34 9.19625 39 9.8125 C37.79212012 12.05386471 37.79212012 12.05386471 38 15 C38.99 14.01 39.98 13.02 41 12 C41.495 12.99 41.495 12.99 42 14 C44.52733235 14.65555119 44.52733235 14.65555119 47 15 C46.39254251 18.42944358 45.10627797 20.42812716 42.9375 23.125 C40.60906996 25.74762068 40.60906996 25.74762068 40 29 C39.34 29 38.68 29 38 29 C38 33.62 38 38.24 38 43 C37.34 43 36.68 43 36 43 C36 43.66 36 44.32 36 45 C36.66 45 37.32 45 38 45 C38 45.99 38 46.98 38 48 C37.34 48 36.68 48 36 48 C33.6526294 53.53308785 31.63135348 58.91733241 32 65 C31.34 65 30.68 65 30 65 C29.505 66.485 29.505 66.485 29 68 C25.48473501 70.43299964 21.83794065 71.87586064 17.625 72.5 C16.75875 72.665 15.8925 72.83 15 73 C14.71125 73.61875 14.4225 74.2375 14.125 74.875 C13.568125 75.926875 13.568125 75.926875 13 77 C11.1746875 77.4021875 11.1746875 77.4021875 9.3125 77.8125 C5.83709779 78.89260672 4.57136469 80.41514767 2.91796875 83.5234375 C1.11530801 87.28373479 -0.47304067 91.12056895 -2 95 C-3.32 94.67 -4.64 94.34 -6 94 C-6 93.34 -6 92.68 -6 92 C-6.93779297 91.87431641 -6.93779297 91.87431641 -7.89453125 91.74609375 C-10 91 -10 91 -11.01171875 89.28515625 C-15.31511238 75.13121996 -15.31511238 75.13121996 -12.6875 68.875 C-12.130625 68.25625 -11.57375 67.6375 -11 67 C-10.34 67 -9.68 67 -9 67 C-9 66.34 -9 65.68 -9 65 C-10.32 64.67 -11.64 64.34 -13 64 C-12.76603516 62.81857422 -12.76603516 62.81857422 -12.52734375 61.61328125 C-11.07557445 53.4891418 -11.00891113 46.1831797 -12 38 C-12.62648437 37.91363281 -13.25296875 37.82726563 -13.8984375 37.73828125 C-16.36133307 37.31484968 -18.6430564 36.83439244 -21 36 C-22.625 33.6875 -22.625 33.6875 -23 31 C-22.68911632 29.32900023 -22.35919668 27.66128463 -22 26 C-22.66 25.34 -23.32 24.68 -24 24 C-26.52066803 25.22851628 -26.52066803 25.22851628 -29 27 C-29.35412344 28.32796291 -29.68521554 29.66216607 -30 31 C-31.62449243 32.70779973 -33.29220027 34.37550757 -35 36 C-35.66 36.99 -36.32 37.98 -37 39 C-42.37992836 38.66009167 -46.53273547 38.31442207 -51 35 C-50.67 32.36 -50.34 29.72 -50 27 C-50.66 27 -51.32 27 -52 27 C-52 25.35 -52 23.7 -52 22 C-50.68 22.33 -49.36 22.66 -48 23 C-48 23.66 -48 24.32 -48 25 C-47.01 24.67 -46.02 24.34 -45 24 C-45 23.34 -45 22.68 -45 22 C-44.01 22 -43.02 22 -42 22 C-42 22.66 -42 23.32 -42 24 C-41.34 24 -40.68 24 -40 24 C-40 23.01 -40 22.02 -40 21 C-40.680625 20.62875 -41.36125 20.2575 -42.0625 19.875 C-44 18 -44 18 -44.18359375 16.01953125 C-43.76322847 10.67999782 -42.35632542 7.27168689 -39 3 C-38.34 2.01 -37.68 1.02 -37 0 C-36.01 0 -35.02 0 -34 0 C-33.67 1.32 -33.34 2.64 -33 4 C-33 2.35 -33 0.7 -33 -1 C-21.18887012 -5.68372392 -10.97965674 -7.31977116 0 0 Z M-32 7 C-31 9 -31 9 -31 9 Z M-6 8 C-5.67 8.99 -5.34 9.98 -5 11 C-4.67 10.01 -4.34 9.02 -4 8 C-4.66 8 -5.32 8 -6 8 Z M34 12 C35 14 35 14 35 14 Z M-13 13 C-13.6496875 13.680625 -13.6496875 13.680625 -14.3125 14.375 C-16 16 -16 16 -18.625 16.9375 C-19.800625 17.4634375 -19.800625 17.4634375 -21 18 C-21.33 19.32 -21.66 20.64 -22 22 C-18.7 21.34 -15.4 20.68 -12 20 C-10.78918149 16.89459074 -10.78918149 16.89459074 -11 13 C-11.66 13 -12.32 13 -13 13 Z M-46 29 C-44.68798827 30.56249809 -44.68798827 30.56249809 -43 32 C-42.01 32 -41.02 32 -40 32 C-40 31.34 -40 30.68 -40 30 C-42.97 29.505 -42.97 29.505 -46 29 Z M-39 30 C-39 30.66 -39 31.32 -39 32 C-38.01 31.67 -37.02 31.34 -36 31 C-36.99 30.67 -37.98 30.34 -39 30 Z " fill="#FFFFFF" transform="translate(197,6)"/>
<path d="M0 0 C0.66 0.33 1.32 0.66 2 1 C2.625 4.0625 2.625 4.0625 3 7 C3.66 7 4.32 7 5 7 C5.14695312 7.88751953 5.14695312 7.88751953 5.296875 8.79296875 C6.27847472 13.98021555 7.41346559 17.00357594 11 21 C14.9708497 26.00032926 16.75146043 30.00590395 16.44140625 36.45703125 C15.7130305 40.65324904 14.01559987 44.27473953 12 48 C11.34 48 10.68 48 10 48 C9.7525 48.845625 9.505 49.69125 9.25 50.5625 C7.5627672 55.20239021 5.96463094 59.59669218 1.8125 62.5625 C-2.9085839 63.29689083 -7.7356087 62.13219565 -12 60 C-12.625 56.9375 -12.625 56.9375 -13 54 C-13.99 54 -14.98 54 -16 54 C-16 53.01 -16 52.02 -16 51 C-16.66 51 -17.32 51 -18 51 C-18.495 48.03 -18.495 48.03 -19 45 C-25.0676509 43.57991149 -29.30296974 44.53047186 -35 47 C-35.495 47.495 -35.495 47.495 -36 48 C-40.61560884 49.30648432 -45.1825053 50.31080611 -50 50 C-51.13999192 46.45335846 -51.13999192 46.45335846 -50.4921875 44.35546875 C-49.63688664 40.26224319 -50.36599236 36.06614331 -50.77148438 31.93164062 C-51.11120027 27.7652399 -51.21043423 24.62431559 -49 21 C-46.9765625 19.70703125 -46.9765625 19.70703125 -44.625 18.8125 C-43.85414063 18.50957031 -43.08328125 18.20664062 -42.2890625 17.89453125 C-41.53367187 17.59933594 -40.77828125 17.30414063 -40 17 C-36.59072377 15.48811248 -35.40559464 14.5139866 -34 11 C-33.01 11 -32.02 11 -31 11 C-30.6596875 10.0409375 -30.6596875 10.0409375 -30.3125 9.0625 C-29 7 -29 7 -26.375 6.25 C-25.199375 6.12625 -25.199375 6.12625 -24 6 C-24 6.66 -24 7.32 -24 8 C-23.34 8 -22.68 8 -22 8 C-21.34 5.69 -20.68 3.38 -20 1 C-18.18674449 1.11351517 -16.37436643 1.24112961 -14.5625 1.375 C-13.55316406 1.44460937 -12.54382813 1.51421875 -11.50390625 1.5859375 C-10.26447266 1.79089844 -10.26447266 1.79089844 -9 2 C-7.66667905 4.6666419 -8.32897967 6.16680303 -9 9 C-7.68 9.66 -6.36 10.32 -5 11 C-5 11.66 -5 12.32 -5 13 C-4.34 13 -3.68 13 -3 13 C-2.86722656 12.22914063 -2.73445313 11.45828125 -2.59765625 10.6640625 C-2.42105469 9.66117188 -2.24445313 8.65828125 -2.0625 7.625 C-1.88847656 6.62726563 -1.71445312 5.62953125 -1.53515625 4.6015625 C-1 2 -1 2 0 0 Z " fill="#FFFFFF" transform="translate(492,243)"/>
<path d="M0 0 C2.9375 0.8125 2.9375 0.8125 6 2 C6.33 2.99 6.66 3.98 7 5 C7.66 4.01 8.32 3.02 9 2 C14.45615878 3.74448614 19.82838971 5.52193673 25 8 C25.33 8.66 25.66 9.32 26 10 C28.64 10 31.28 10 34 10 C33.34 8.35 32.68 6.7 32 5 C34.475 5.99 34.475 5.99 37 7 C36.42655063 9.86724686 36.1385485 10.8614515 34 13 C30.875 12.625 30.875 12.625 28 12 C30.03802135 16.06024321 30.03802135 16.06024321 34 18 C33.505 19.485 33.505 19.485 33 21 C29.5625 20.1875 29.5625 20.1875 26 19 C25.67 18.01 25.34 17.02 25 16 C24.01 16 23.02 16 22 16 C21.67 16.66 21.34 17.32 21 18 C17.4780279 18.08004482 14.38018531 18.04005702 11 17 C11 15.35 11 13.7 11 12 C9.88625 11.525625 8.7725 11.05125 7.625 10.5625 C5.73289006 9.74693537 3.84287291 8.92143645 2 8 C1.67 7.01 1.34 6.02 1 5 C0.34 4.67 -0.32 4.34 -1 4 C-0.67 2.68 -0.34 1.36 0 0 Z " fill="#FFFFFF" transform="translate(474,223)"/>
<path d="M0 0 C1.3921875 0.495 1.3921875 0.495 2.8125 1 C5.92029291 2.14967004 5.92029291 2.14967004 9 2 C8.01 4.31 7.02 6.62 6 9 C5.01 9 4.02 9 3 9 C3.495 9.7425 3.99 10.485 4.5 11.25 C6.91124523 16.02656198 6.79317051 21.80551077 6 27 C3 29 3 29 0 29 C-0.33 29.99 -0.66 30.98 -1 32 C-3.97 32.495 -3.97 32.495 -7 33 C-7.33 35.31 -7.66 37.62 -8 40 C-11 36.25 -11 36.25 -11 34 C-11.66 33.67 -12.32 33.34 -13 33 C-11.5023304 30.50175965 -9.98441782 28.13995327 -8 26 C-5.1875 25.5625 -5.1875 25.5625 -3 26 C-3 24.35 -3 22.7 -3 21 C-2.34 21 -1.68 21 -1 21 C-0.2688766 17.10067519 0.09850127 13.86942604 -0.5 9.9375 C-0.96758085 6.25530084 -0.80777981 3.5901325 0 0 Z " fill="#FFFFFF" transform="translate(477,125)"/>
<path d="M0 0 C0.66 0.66 1.32 1.32 2 2 C3.5159375 2.2475 3.5159375 2.2475 5.0625 2.5 C6.031875 2.665 7.00125 2.83 8 3 C8.33 3.66 8.66 4.32 9 5 C8.3125 7.0625 8.3125 7.0625 7 9 C4.875 9.75 4.875 9.75 3 10 C4.32 11.65 5.64 13.3 7 15 C6.34 16.32 5.68 17.64 5 19 C3.68 18.34 2.36 17.68 1 17 C0.34 18.98 -0.32 20.96 -1 23 C-4.48213758 20.50000379 -6.16038058 19.19809708 -7 15 C-7.99 14.34 -8.98 13.68 -10 13 C-10.1875 9.875 -10.1875 9.875 -10 7 C-7.09399739 5.74335022 -5.20395416 5 -2 5 C-1.34 3.35 -0.68 1.7 0 0 Z " fill="#FFFFFF" transform="translate(276,25)"/>
<path d="M0 0 C0.99 0 1.98 0 3 0 C3 0.66 3 1.32 3 2 C4.32 2.66 5.64 3.32 7 4 C6.01 4.66 5.02 5.32 4 6 C4.33 7.98 4.66 9.96 5 12 C4.34 12 3.68 12 3 12 C2.34 14.97 1.68 17.94 1 21 C-6.625 20.125 -6.625 20.125 -10 19 C-11.52743342 16.25061985 -12.02151948 14.46266879 -11.875 11.3125 C-11 9 -11 9 -9.3125 8 C-8.549375 7.67 -7.78625 7.34 -7 7 C-2.90609318 4.03323146 -2.90609318 4.03323146 0 0 Z " fill="#FFFFFF" transform="translate(449,211)"/>
<path d="M0 0 C-0.57584432 2.38564077 -1.22227595 4.66682784 -2 7 C-0.62831762 9.19038423 -0.62831762 9.19038423 1 11 C1.66 9.68 2.32 8.36 3 7 C3.66 7 4.32 7 5 7 C5 8.65 5 10.3 5 12 C5.66 12 6.32 12 7 12 C7 13.98 7 15.96 7 18 C2.38 18 -2.24 18 -7 18 C-7.33 16.68 -7.66 15.36 -8 14 C-8.66 14 -9.32 14 -10 14 C-11.12975833 10.68604223 -12.17884773 7.40297337 -13 4 C-4.738041 -0.59225513 -4.738041 -0.59225513 0 0 Z " fill="#FFFFFF" transform="translate(126,17)"/>
<path d="M0 0 C0.99 0.33 1.98 0.66 3 1 C3.26357735 6.49238214 2.46120066 10.70485197 0.6875 15.8125 C0.47416016 16.47958984 0.26082031 17.14667969 0.04101562 17.83398438 C-1.185699 21.46286257 -1.72079976 22.81386651 -5 25 C-8.51724138 24.48275862 -8.51724138 24.48275862 -10 23 C-10.33388674 17.65781213 -10.21389595 11.95540261 -8 7 C-5 5.75 -5 5.75 -2 5 C-0.56076801 2.49004504 -0.56076801 2.49004504 0 0 Z " fill="#FFFFFF" transform="translate(336,245)"/>
<path d="M0 0 C1.32 0.33 2.64 0.66 4 1 C3.49935858 5.33889229 0.78273829 7.81003171 -2 11 C-4.59500943 14.89251414 -5.10127839 18.34963376 -5 23 C-3.68864588 25.36290685 -3.68864588 25.36290685 -2 27 C-2 27.99 -2 28.98 -2 30 C-6.29625631 29.51178906 -8.6615409 28.70705488 -12 26 C-11.79738522 23.4537068 -11.56398451 20.91655146 -11.3125 18.375 C-11.25900391 17.66214844 -11.20550781 16.94929688 -11.15039062 16.21484375 C-10.56484254 10.66486628 -8.98576303 7.92491168 -5 4 C-2.75 3.3125 -2.75 3.3125 -1 3 C-0.67 2.01 -0.34 1.02 0 0 Z " fill="#FFFFFF" transform="translate(331,37)"/>
<path d="M0 0 C4.875 1.75 4.875 1.75 6 4 C7.2375 4.495 7.2375 4.495 8.5 5 C11 6 11 6 12 8 C12.99 7.67 13.98 7.34 15 7 C17.6875 8.4375 17.6875 8.4375 20 10 C19.75 12.375 19.75 12.375 19 15 C16.9375 16.3125 16.9375 16.3125 15 17 C14.34 15.68 13.68 14.36 13 13 C11.453125 13.0928125 11.453125 13.0928125 9.875 13.1875 C5.73343852 12.98710186 3.49537631 12.16380438 0 10 C-1.49106457 7.01787087 -1.11941467 4.28390342 -1 1 C-0.67 0.67 -0.34 0.34 0 0 Z " fill="#FFFFFF" transform="translate(350,7)"/>
<path d="M0 0 C1.32 0 2.64 0 4 0 C3.87625 1.0725 3.7525 2.145 3.625 3.25 C3.74875 4.4875 3.8725 5.725 4 7 C5.97321053 8.3726682 7.97543152 9.70427617 10 11 C12.16753346 15.99475102 12.07852306 19.71523698 11 25 C9.68 24.67 8.36 24.34 7 24 C7 23.34 7 22.68 7 22 C6.34 22 5.68 22 5 22 C4.67 22.66 4.34 23.32 4 24 C3 21 3 21 4 18 C3.60602665 15.36195411 3.60602665 15.36195411 3 13 C1.68 12.67 0.36 12.34 -1 12 C-1 10.68 -1 9.36 -1 8 C-1.020625 6.783125 -1.04125 5.56625 -1.0625 4.3125 C-1 1 -1 1 0 0 Z M4 11 C5 13 5 13 5 13 Z " fill="#FFFFFF" transform="translate(455,189)"/>
<path d="M0 0 C1.65322266 0.01740234 1.65322266 0.01740234 3.33984375 0.03515625 C4.99693359 0.04869141 4.99693359 0.04869141 6.6875 0.0625 C7.54214844 0.07410156 8.39679688 0.08570312 9.27734375 0.09765625 C10.31640625 1.96484375 10.31640625 1.96484375 11.27734375 4.09765625 C10.53734964 6.61363624 9.68552108 7.76797456 7.65234375 9.41015625 C4.01789574 10.46223331 0.9930638 9.71694293 -2.72265625 9.09765625 C-3.6015625 2.9453125 -3.6015625 2.9453125 -3.72265625 1.09765625 C-2.72265625 0.09765625 -2.72265625 0.09765625 0 0 Z " fill="#FFFFFF" transform="translate(226.72265625,82.90234375)"/>
<path d="M0 0 C1.32 0 2.64 0 4 0 C4 0.66 4 1.32 4 2 C4.66 2 5.32 2 6 2 C9.26915556 6.90373335 10.22450809 9.05053549 10 15 C8.35 14.67 6.7 14.34 5 14 C4.67 13.01 4.34 12.02 4 11 C2.35 11 0.7 11 -1 11 C-2.0257259 6.58937864 -2.03684712 4.07369424 0 0 Z " fill="#FFFFFF" transform="translate(142,13)"/>
<path d="M0 0 C3.63 0 7.26 0 11 0 C11.33 1.32 11.66 2.64 12 4 C9.875 6.8125 9.875 6.8125 7 9 C3.56336468 8.91617963 0.97860396 7.65477998 -2 6 C-1.34 4.02 -0.68 2.04 0 0 Z " fill="#FFFFFF" transform="translate(414,14)"/>
<path d="M0 0 C0.66 0 1.32 0 2 0 C2 0.66 2 1.32 2 2 C2.66 2 3.32 2 4 2 C4 1.34 4 0.68 4 0 C6.475 0.99 6.475 0.99 9 2 C8.34 3.98 7.68 5.96 7 8 C7.99 7.67 8.98 7.34 10 7 C10 8.98 10 10.96 10 13 C8.68 13 7.36 13 6 13 C5.67 12.34 5.34 11.68 5 11 C4.0409375 10.8453125 4.0409375 10.8453125 3.0625 10.6875 C1 10 1 10 -0.3125 7.75 C-1.0653653 4.7385388 -0.84442152 2.95547533 0 0 Z " fill="#FFFFFF" transform="translate(135,27)"/>
<path d="M0 0 C-1 3 -1 3 -3 4 C-3 4.66 -3 5.32 -3 6 C-3.66 6 -4.32 6 -5 6 C-4.67 8.31 -4.34 10.62 -4 13 C-5.98 13.33 -7.96 13.66 -10 14 C-11.41196151 11.69765978 -12.02997047 10.40528247 -11.828125 7.67578125 C-11.63734375 6.89589844 -11.4465625 6.11601562 -11.25 5.3125 C-11.06953125 4.52488281 -10.8890625 3.73726562 -10.703125 2.92578125 C-9.10141178 -1.4611333 -3.88623411 -0.0626812 0 0 Z " fill="#FFFFFF" transform="translate(465,221)"/>
<path d="M0 0 C0.66 1.32 1.32 2.64 2 4 C2.99 4 3.98 4 5 4 C5.33 3.34 5.66 2.68 6 2 C6.99 2.33 7.98 2.66 9 3 C8.05066101 6.35433109 7.10251165 9.69246505 6 13 C3.36 13 0.72 13 -2 13 C-2.16682272 8.07872966 -2.24828052 4.49656104 0 0 Z M3 6 C4 9 4 9 4 9 Z " fill="#FFFFFF" transform="translate(312,13)"/>
<path d="M0 0 C7.07487342 -0.64317031 11.09493185 1.17264102 17 5 C17 5.66 17 6.32 17 7 C10.41906874 7.37250554 10.41906874 7.37250554 8.3125 5.5 C7.879375 5.005 7.44625 4.51 7 4 C5.68 4 4.36 4 3 4 C1.65835921 3.7018576 0.32148827 3.37756808 -1 3 C-0.67 2.01 -0.34 1.02 0 0 Z " fill="#FFFFFF" transform="translate(119,181)"/>
<path d="M0 0 C1.98 0 3.96 0 6 0 C7 3 7 3 6.375 5.625 C5 8 5 8 2.375 8.8125 C1.199375 8.9053125 1.199375 8.9053125 0 9 C0 6.03 0 3.06 0 0 Z " fill="#FFFFFF" transform="translate(485,310)"/>
<path d="M0 0 C1.98 0 3.96 0 6 0 C5.67 1.32 5.34 2.64 5 4 C4.34 4 3.68 4 3 4 C2.34 5.32 1.68 6.64 1 8 C-0.32 7.67 -1.64 7.34 -3 7 C-3.33 5.68 -3.66 4.36 -4 3 C-2.68 2.67 -1.36 2.34 0 2 C0 1.34 0 0.68 0 0 Z " fill="#FFFFFF" transform="translate(131,14)"/>
<path d="M0 0 C1.98 0 3.96 0 6 0 C6.33 2.31 6.66 4.62 7 7 C4.03 6.505 4.03 6.505 1 6 C1 5.34 1 4.68 1 4 C0.01 4 -0.98 4 -2 4 C-1.34 2.68 -0.68 1.36 0 0 Z " fill="#FFFFFF" transform="translate(302,21)"/>
<path d="M0 0 C1.98 0 3.96 0 6 0 C6.66 1.32 7.32 2.64 8 4 C1.375 5.125 1.375 5.125 -2 4 C-2 3.34 -2 2.68 -2 2 C-1.34 2 -0.68 2 0 2 C0 1.34 0 0.68 0 0 Z " fill="#FFFFFF" transform="translate(137,187)"/>
<path d="M0 0 C0.99 0 1.98 0 3 0 C3 2.97 3 5.94 3 9 C2.01 9 1.02 9 0 9 C0 6.03 0 3.06 0 0 Z " fill="#FFFFFF" transform="translate(268,143)"/>
<path d="M0 0 C2.31 0.66 4.62 1.32 7 2 C7 2.99 7 3.98 7 5 C5.35 5.33 3.7 5.66 2 6 C2 5.01 2 4.02 2 3 C1.34 3 0.68 3 0 3 C0 2.01 0 1.02 0 0 Z " fill="#FFFFFF" transform="translate(423,23)"/>
<path d="M0 0 C0.66 0 1.32 0 2 0 C2 2.31 2 4.62 2 7 C1.01 7 0.02 7 -1 7 C-1.04254356 5.00045254 -1.04080783 2.99958364 -1 1 C-0.67 0.67 -0.34 0.34 0 0 Z " fill="#FFFFFF" transform="translate(454,175)"/>
<path d="M0 0 C1.98 0 3.96 0 6 0 C5.67 1.32 5.34 2.64 5 4 C3.02 3.34 1.04 2.68 -1 2 C-0.67 1.34 -0.34 0.68 0 0 Z " fill="#FFFFFF" transform="translate(427,14)"/>
<path d="M0 0 C0.66 0.66 1.32 1.32 2 2 C1.75 5.0625 1.75 5.0625 1 8 C0.01 8.495 0.01 8.495 -1 9 C-1.09765625 2.84765625 -1.09765625 2.84765625 -1 1 C-0.67 0.67 -0.34 0.34 0 0 Z " fill="#FFFFFF" transform="translate(469,219)"/>
<path d="M0 0 C0.99 0 1.98 0 3 0 C2.67 2.31 2.34 4.62 2 7 C0 5 0 5 -0.125 2.375 C-0.08375 1.59125 -0.0425 0.8075 0 0 Z " fill="#FFFFFF" transform="translate(56,102)"/>
<path d="M0 0 C1.32 0.33 2.64 0.66 4 1 C4 2.32 4 3.64 4 5 C3.34 5 2.68 5 2 5 C1.34 3.35 0.68 1.7 0 0 Z " fill="#FFFFFF" transform="translate(15,54)"/>
<path d="M0 0 C1.9375 0.8125 1.9375 0.8125 4 2 C4.33 2.99 4.66 3.98 5 5 C3.68 4.67 2.36 4.34 1 4 C0.67 2.68 0.34 1.36 0 0 Z " fill="#FFFFFF" transform="translate(527,263)"/>
<path d="M0 0 C-0.33 0.66 -0.66 1.32 -1 2 C-4.0625 2.625 -4.0625 2.625 -7 3 C-7 2.34 -7 1.68 -7 1 C-3.375 -1.125 -3.375 -1.125 0 0 Z " fill="#FFFFFF" transform="translate(8,93)"/>
<path d="M0 0 C0.66 0.33 1.32 0.66 2 1 C2.625 3.0625 2.625 3.0625 3 5 C2.34 5 1.68 5 1 5 C1 4.34 1 3.68 1 3 C0.01 3 -0.98 3 -2 3 C-2 2.34 -2 1.68 -2 1 C-1.34 0.67 -0.68 0.34 0 0 Z " fill="#FFFFFF" transform="translate(523,239)"/>
<path d="M0 0 C1.65 0.99 3.3 1.98 5 3 C3.68 3.33 2.36 3.66 1 4 C0.67 2.68 0.34 1.36 0 0 Z " fill="#FFFFFF" transform="translate(513,233)"/>
<path d="M0 0 C1.98 0.495 1.98 0.495 4 1 C4 1.66 4 2.32 4 3 C2.35 3 0.7 3 -1 3 C-0.67 2.01 -0.34 1.02 0 0 Z " fill="#FFFFFF" transform="translate(470,228)"/>
<path d="M0 0 C0.33 0.99 0.66 1.98 1 3 C-0.98 3.99 -0.98 3.99 -3 5 C-1.125 1.125 -1.125 1.125 0 0 Z " fill="#FFFFFF" transform="translate(454,203)"/>
<path d="M0 0 C1.32 0 2.64 0 4 0 C3.67 0.99 3.34 1.98 3 3 C2.01 3 1.02 3 0 3 C0 2.01 0 1.02 0 0 Z " fill="#FFFFFF" transform="translate(138,86)"/>
<path d="M0 0 C1.65 0 3.3 0 5 0 C5 0.66 5 1.32 5 2 C3.35 2 1.7 2 0 2 C0 1.34 0 0.68 0 0 Z " fill="#FFFFFF" transform="translate(293,158)"/>
<path d="M0 0 C0.99 0 1.98 0 3 0 C3 0.99 3 1.98 3 3 C2.01 3 1.02 3 0 3 C0 2.01 0 1.02 0 0 Z " fill="#FFFFFF" transform="translate(318,71)"/>
<path d="M0 0 C0.66 0 1.32 0 2 0 C1.67 1.32 1.34 2.64 1 4 C0.34 4 -0.32 4 -1 4 C-0.67 2.68 -0.34 1.36 0 0 Z " fill="#FFFFFF" transform="translate(137,21)"/>
<path d="M0 0 C1.32 0 2.64 0 4 0 C4 0.66 4 1.32 4 2 C2.68 2 1.36 2 0 2 C0 1.34 0 0.68 0 0 Z " fill="#FFFFFF" transform="translate(146,190)"/>
<path d="M0 0 C1.32 0 2.64 0 4 0 C4 0.66 4 1.32 4 2 C2.68 2 1.36 2 0 2 C0 1.34 0 0.68 0 0 Z " fill="#FFFFFF" transform="translate(128,190)"/>
<path d="M0 0 C0.66 0.33 1.32 0.66 2 1 C1.01 1.99 0.02 2.98 -1 4 C-1 1 -1 1 0 0 Z " fill="#FFFFFF" transform="translate(487,123)"/>
<path d="M0 0 C0.66 0 1.32 0 2 0 C1.67 0.99 1.34 1.98 1 3 C0.34 3 -0.32 3 -1 3 C-0.67 2.01 -0.34 1.02 0 0 Z " fill="#FFFFFF" transform="translate(143,88)"/>
<path d="M0 0 C1.32 0.33 2.64 0.66 4 1 C2.68 1.33 1.36 1.66 0 2 C0 1.34 0 0.68 0 0 Z " fill="#FFFFFF" transform="translate(146,85)"/>
<path d="M0 0 C0.99 0.33 1.98 0.66 3 1 C2.67 1.66 2.34 2.32 2 3 C1.34 3 0.68 3 0 3 C0 2.01 0 1.02 0 0 Z " fill="#FFFFFF" transform="translate(151,11)"/>
<path d="M0 0 C0.99 0 1.98 0 3 0 C3 0.66 3 1.32 3 2 C2.01 2 1.02 2 0 2 C0 1.34 0 0.68 0 0 Z " fill="#FFFFFF" transform="translate(465,229)"/>
<path d="M0 0 C0.66 0 1.32 0 2 0 C2 0.99 2 1.98 2 3 C1.34 3 0.68 3 0 3 C0 2.01 0 1.02 0 0 Z " fill="#FFFFFF" transform="translate(493,106)"/>
<path d="M0 0 C0.99 0 1.98 0 3 0 C3 0.66 3 1.32 3 2 C2.01 2 1.02 2 0 2 C0 1.34 0 0.68 0 0 Z " fill="#FFFFFF" transform="translate(138,106)"/>
<path d="M0 0 C0.99 0 1.98 0 3 0 C3 0.66 3 1.32 3 2 C2.01 2 1.02 2 0 2 C0 1.34 0 0.68 0 0 Z " fill="#FFFFFF" transform="translate(15,70)"/>
<path d="M0 0 C0.99 0.495 0.99 0.495 2 1 C1.67 1.99 1.34 2.98 1 4 C0.67 2.68 0.34 1.36 0 0 Z " fill="#FFFFFF" transform="translate(129,177)"/>
<path d="M0 0 C0.99 0.33 1.98 0.66 3 1 C2.01 1 1.02 1 0 1 C0 0.67 0 0.34 0 0 Z " fill="#FFFFFF" transform="translate(531,264)"/>
<path d="M0 0 C0.66 0.66 1.32 1.32 2 2 C1.01 2.495 1.01 2.495 0 3 C0 2.01 0 1.02 0 0 Z " fill="#FFFFFF" transform="translate(532,251)"/>
<path d="M0 0 C0.66 0 1.32 0 2 0 C2 0.66 2 1.32 2 2 C1.34 2 0.68 2 0 2 C0 1.34 0 0.68 0 0 Z " fill="#FFFFFF" transform="translate(479,234)"/>
<path d="M0 0 C0.66 0 1.32 0 2 0 C2 0.66 2 1.32 2 2 C1.34 2 0.68 2 0 2 C0 1.34 0 0.68 0 0 Z " fill="#FFFFFF" transform="translate(435,228)"/>
<path d="M0 0 C0.66 0 1.32 0 2 0 C2 0.66 2 1.32 2 2 C1.34 2 0.68 2 0 2 C0 1.34 0 0.68 0 0 Z " fill="#FFFFFF" transform="translate(409,199)"/>
<path d="M0 0 C0.99 0 1.98 0 3 0 C2.67 0.66 2.34 1.32 2 2 C1.34 1.34 0.68 0.68 0 0 Z " fill="#FFFFFF" transform="translate(129,174)"/>
<path d="M0 0 C0.99 0.33 1.98 0.66 3 1 C2.01 1.33 1.02 1.66 0 2 C0 1.34 0 0.68 0 0 Z " fill="#FFFFFF" transform="translate(260,149)"/>
<path d="M0 0 C0 3 0 3 0 3 Z " fill="#FFFFFF" transform="translate(153,65)"/>
<path d="M0 0 C0.66 0 1.32 0 2 0 C2 0.66 2 1.32 2 2 C1.34 2 0.68 2 0 2 C0 1.34 0 0.68 0 0 Z " fill="#FFFFFF" transform="translate(355,29)"/>
<path d="M0 0 C0.66 0 1.32 0 2 0 C2 0.66 2 1.32 2 2 C1.34 2 0.68 2 0 2 C0 1.34 0 0.68 0 0 Z " fill="#FFFFFF" transform="translate(363,28)"/>
<path d="M0 0 C0.99 0.33 1.98 0.66 3 1 C2.01 1 1.02 1 0 1 C0 0.67 0 0.34 0 0 Z " fill="#FFFFFF" transform="translate(417,26)"/>
<path d="M0 0 C0.66 0 1.32 0 2 0 C1.67 0.66 1.34 1.32 1 2 C0.67 1.34 0.34 0.68 0 0 Z " fill="#FFFFFF" transform="translate(484,307)"/>
<path d="M0 0 C0.99 0.495 0.99 0.495 2 1 C1.01 1.495 1.01 1.495 0 2 C0 1.34 0 0.68 0 0 Z " fill="#FFFFFF" transform="translate(533,254)"/>
<path d="M0 0 C0.66 0.66 1.32 1.32 2 2 C1.34 2 0.68 2 0 2 C0 1.34 0 0.68 0 0 Z " fill="#FFFFFF" transform="translate(520,237)"/>
<path d="M0 0 C0.66 0 1.32 0 2 0 C1.67 0.66 1.34 1.32 1 2 C0.67 1.34 0.34 0.68 0 0 Z " fill="#FFFFFF" transform="translate(517,238)"/>
<path d="M0 0 C3 1 3 1 3 1 Z " fill="#FFFFFF" transform="translate(463,227)"/>
<path d="M0 0 C0.66 0 1.32 0 2 0 C1.67 0.66 1.34 1.32 1 2 C0.67 1.34 0.34 0.68 0 0 Z " fill="#FFFFFF" transform="translate(420,226)"/>
<path d="M0 0 C0.33 0.66 0.66 1.32 1 2 C0.34 1.67 -0.32 1.34 -1 1 C-0.67 0.67 -0.34 0.34 0 0 Z " fill="#FFFFFF" transform="translate(460,156)"/>
<path d="M0 0 C0.99 0.495 0.99 0.495 2 1 C1.01 1.495 1.01 1.495 0 2 C0 1.34 0 0.68 0 0 Z " fill="#FFFFFF" transform="translate(489,121)"/>
<path d="M0 0 C0.33 0.66 0.66 1.32 1 2 C0.34 1.67 -0.32 1.34 -1 1 C-0.67 0.67 -0.34 0.34 0 0 Z " fill="#FFFFFF" transform="translate(159,95)"/>
<path d="M0 0 C3 1 3 1 3 1 Z " fill="#FFFFFF" transform="translate(371,19)"/>
<path d="M0 0 C0.33 0.66 0.66 1.32 1 2 C0.34 1.67 -0.32 1.34 -1 1 C-0.67 0.67 -0.34 0.34 0 0 Z " fill="#FFFFFF" transform="translate(317,13)"/>
<path d="" fill="#FFFFFF" transform="translate(0,0)"/>
<path d="" fill="#FFFFFF" transform="translate(0,0)"/>
<path d="M0 0 C2 1 2 1 2 1 Z " fill="#FFFFFF" transform="translate(500,227)"/>
<path d="" fill="#FFFFFF" transform="translate(0,0)"/>
<path d="M0 0 C2 1 2 1 2 1 Z " fill="#FFFFFF" transform="translate(135,182)"/>
<path d="M0 0 C2 1 2 1 2 1 Z " fill="#FFFFFF" transform="translate(133,179)"/>
<path d="M0 0 C2 1 2 1 2 1 Z " fill="#FFFFFF" transform="translate(466,168)"/>
<path d="" fill="#FFFFFF" transform="translate(0,0)"/>
<path d="" fill="#FFFFFF" transform="translate(0,0)"/>
<path d="M0 0 C2 1 2 1 2 1 Z " fill="#FFFFFF" transform="translate(350,38)"/>
<path d="" fill="#FFFFFF" transform="translate(0,0)"/>
<path d="" fill="#FFFFFF" transform="translate(0,0)"/>
<path d="" fill="#FFFFFF" transform="translate(0,0)"/>
<path d="" fill="#FFFFFF" transform="translate(0,0)"/>
<path d="" fill="#FFFFFF" transform="translate(0,0)"/>
<path d="" fill="#FFFFFF" transform="translate(0,0)"/>
<path d="" fill="#FFFFFF" transform="translate(0,0)"/>
<path d="" fill="#FFFFFF" transform="translate(0,0)"/>
<path d="" fill="#FFFFFF" transform="translate(0,0)"/>
<path d="" fill="#FFFFFF" transform="translate(0,0)"/>
<path d="" fill="#FFFFFF" transform="translate(0,0)"/>
<path d="" fill="#FFFFFF" transform="translate(0,0)"/>
<path d="" fill="#FFFFFF" transform="translate(0,0)"/>
<path d="" fill="#FFFFFF" transform="translate(0,0)"/>
<path d="" fill="#FFFFFF" transform="translate(0,0)"/>
<path d="" fill="#FFFFFF" transform="translate(0,0)"/>
<path d="" fill="#FFFFFF" transform="translate(0,0)"/>
<path d="" fill="#FFFFFF" transform="translate(0,0)"/>
<path d="" fill="#FFFFFF" transform="translate(0,0)"/>
<path d="" fill="#FFFFFF" transform="translate(0,0)"/>
<path d="" fill="#FFFFFF" transform="translate(0,0)"/>
<path d="" fill="#FFFFFF" transform="translate(0,0)"/>
<path d="" fill="#FFFFFF" transform="translate(0,0)"/>
<path d="" fill="#FFFFFF" transform="translate(0,0)"/>
<path d="" fill="#FFFFFF" transform="translate(0,0)"/>
<path d="" fill="#FFFFFF" transform="translate(0,0)"/>
</svg>
