<svg xmlns="http://www.w3.org/2000/svg" width="535" height="338"><path fill="#FFF" d="m370 22 7 1v2l2.625-.75C383 24 383 24 386.313 25.625c2.952 2.61 3.278 3.592 3.687 7.375l2 1v3l1.828-.254 2.422-.309 2.39-.316c2.365-.121 4.111.183 6.36.879l1-4c3.063-.5 3.063-.5 7 0 2.713 2.388 4.865 5.093 7 8l1-3 4 1v-2l4-2-1-5c11.621-3.113 11.621-3.113 16.938-.625L447 31l3 1 3-2c3.188-.125 3.188-.125 6 0l2 4 2.75-1c3.25-1 3.25-1 7.25-1v-3h3v-2c5.417-2.361 9.361-1.829 15-1q2.685.296 5.375.563l2.46.253c3.704.336 3.704.336 7.165-.816 2.125.438 2.125.438 4 1l.375 3.313c.38 3.76.38 3.76 2.625 6.687v3h-7c-1.24 2.48-1.069 4.254-1 7v2l2.5 2.375C508 54 508 54 508 58l-3 1c-2.321 3.353-2.541 7.024-3 11l-2.25-.25c-3.532.321-4.516 1.603-6.75 4.25l3 1-1 3h-2v2h3c2.111 3.431 2.084 6.031 2 10l1 3h-2l.563 2.375C498 98 498 98 497 100a225 225 0 0 0-1 6c-3.894-1.298-4.194-2.676-6.062-6.25l-1.536-2.89c-2.584-5.27-3.746-8.903-3.402-14.86l1-1c.233-1.682.413-3.371.563-5.062l.253-2.786L487 71h-1l-3-1v-2l-4 1c.095.699.19 1.397.29 2.117.11.91.22 1.82.335 2.758l.352 2.742L480 79l-2 2h-3v-2l-2.336.875L469.625 81l-3.023 1.125C464 83 464 83 462 83l-.184 1.793C461.38 88.91 460.913 92.955 460 97h2l1 2c2.425.835 2.425.835 5 1l2-2c2.83 3.37 4.31 6.96 6 11l2 3v7c.88 2.354.88 2.354 2 4l-4 1-4-12 .25 4.313c-.008 5.896-1.167 11.6-4.25 16.687q-2.476 1.058-5 2c-1.788 2.462-2.656 4.978-3 8 1.67 2.755 1.67 2.755 4 5 .75 2.813.75 2.813 1 5-3 2-3 2-6 2l-1-7h-3v-5l-6 3-2-3-1 2h-2v2l9 1v2l-3 2c.437 2.448.826 3.804 2.5 5.688 2.35 3.622 2.846 7.026 2.5 11.312-1.719 4.875-3.957 9.652-8 13-2.043.95-2.043.95-4.187 1.688l-2.168.761L439 185l1 3-1 2h-4l1-6-4 1c.437 4.807 1.38 6.833 5 10 1.512 3.024 1.582 4.639 1 8-2.44 2.36-5.133 4.195-8 6v-3l-1.937-.875C426 204 426 204 425 202l-3-1c-.167 2.416-.167 2.416 0 5l2 2v3l1.813.5c3.354 2.3 4.134 5.673 5.187 9.5v2l-1 1 4 3-1 7 13 2v2h18l3-1 1 3c-3.625 3-3.625 3-7 3v-3l-4 1v2l-1.738-.457c-2.148-.516-4.267-.894-6.45-1.227l-2.367-.373q-2.445-.38-4.89-.75l-2.368-.377-2.144-.33c-2.231-.53-4.035-1.39-6.043-2.486v-2l-1.75-.812c-5.187-2.738-6.425-4.592-8.25-10.188l-3-1-.312-2.375c-.464-2.955-.464-2.955-3.688-4.625v-3c3.821.53 6.062 1.497 9 4l-1.875-3.062c-3.147-6.171-3.453-13.144-4.125-19.938l-6 1-.75-3.25c-1.249-3.746-2.275-5.27-5.25-7.75-5.687 1.379-8.447 5.705-12 10l-2 2c-.68 2.427-.68 2.427-1.125 5.125l-.508 2.758L389 206h2l2 6-4 2-2-5h-4q-1.734-3.774-3.437-7.562l-.987-2.135C376.57 194.814 375.457 190.9 375 186l-3 1-1.672-1.902c-2.591-2.335-4.214-2.896-7.578-3.66-4.764-1.164-9.193-2.632-13.75-4.438l1 2 3 1c1.375 1.688 1.375 1.688 2 4-2.478 6.996-7.521 9.97-13.937 13.125l-3.028 1.508c-2.968 1.337-5.93 2.395-9.035 3.367v1l12-1c0 6.708-1.185 9.699-5 15-1.665 1.615-3.4 3.032-5.223 4.465-4.03 3.481-8.058 8.118-8.777 13.535.347 2.371.347 2.371 1 4.813.924 4.468 1.582 7.775 0 12.187-2.078 1.668-2.078 1.668-4.562 3.375-3.497 2.336-3.497 2.336-5.032 6.066.028 2.25.188 4.348.594 6.559l-4 1-.25 2.672c-1.31 5.809-5.29 9.56-9.75 13.328-4.775 2.173-9.808 2.266-15 2-3.891-7.483-5.817-15.766-8.035-23.863-.83-3.042-.83-3.042-2.102-5.301-1.045-2.224-.966-3.487-.613-5.899l.266-2.035C275 248 275 248 277 245c.343-6.008-1.286-10.273-5-15-2.236-3.353-2.173-3.907-1.625-7.687l.336-2.45L271 218l-3.437-.875L264 216l-1-2-2.625.438q-2.187.29-4.375.562l-3.336.465c-10.757 1.204-10.757 1.204-14.789-1.528-2.895-2.623-4.983-5.53-6.875-8.937v-2l-3-1c-1.125-4.75-1.125-4.75 0-7-.084-1.855-.192-3.71-.312-5.562-.064-6.662 1.867-10.564 6.312-15.438l2.75-2.125c3.052-2.544 3.224-5.111 4.25-8.875 2.063-1.687 2.063-1.687 4-3 .796-2.094.796-2.094 1-4h-4c-.77-4.718-1.191-9.217-1-14 1.74-1.74 4.194-1.372 6.563-1.562l3.066-.254L253 140c-.27-2.437-.27-2.437-1-5l-3-2v-3h4v-2h-2a140 140 0 0 1-4-1c.588-3.024 1.227-6.018 2-9l-1 3c-1.25 1.688-1.25 1.688-3 3-2.687.188-2.687.188-5 0 .264-5.373.264-5.373 1-8 2.563-2 2.563-2 5-3l-1-5 6-3c1.213 2.184 1.994 3.965 2.438 6.438.66 3.006 1.813 5.043 3.562 7.562l2 1 1 3 1.188-1.937c2.197-2.5 3.57-2.713 6.812-3.063l-1-2c-.04-2-.043-4 0-6l4-1v-3h-2v2c-3.75 1.125-3.75 1.125-6 0-.937-4.03-1.098-7.874-1-12h2v-2h2v-2l2.375-2.312c4.35-4.454 4.91-8.609 5.625-14.688l5-2v-2c9.29-4.81 9.29-4.81 15-3l2 1v2h2v2l3.125.25c4.227.818 6.577 2.015 9.875 4.75v3l2-1-1-6 5 1 1 3 1-2h2v-2l2.688-.875A140 140 0 0 0 332 70l-2-2v-3l11 3-.5-3.5c-.532-4.2-.576-8.27-.5-12.5h4l2 2v-2l4 2 1.75-2.812c1.966-2.786 3.43-4.375 6.25-6.188l-2-3c2.776-3.599 5.612-6.96 9-10h3l2-3a70 70 0 0 0-1-4zm104 7v3l3-1h-2zm-87 11 1 2Zm-33 12 1 2Zm-8 2 1 3 1-3zm3 8 1 2Zm4 10 1 2Zm-50 12 1 5 1-3 4 1v-3zm-17 2-2 7c2.526-2.363 3.888-3.665 5-7zm-4.625 8.188c-1.661 1.775-1.661 1.775-1.187 4.374.658 2.582.658 2.582 2.812 4.438l-1.562 1.813L280 107l1 3v-2l2 1v2h-3a167 167 0 0 0-3 4l-3 1h2l1 2 3-2c1.99-.39 3.99-.732 6-1l.148-1.863.227-2.45.21-2.425C287 106 287 106 289 103l-3-2c-.985-2.624-1.422-5.245-2-8-1.2-.098-1.2-.098-2.625 1.188M299 98l1 3v-3zm-9 5h5v-2c-2.324-.185-2.324-.185-5 2m-19 6 1 4 1-2zm146 0 1 2Zm-88 27c.378 3.312.84 4.815 3.063 7.375 2.486 3.369 2.258 5.535 1.937 9.625 2.39 1.106 2.39 1.106 5 2l2-1c-.665-4.389-2.188-7.981-4-12h-2c-.687-1.812-.687-1.812-1-4 1.438-1.625 1.438-1.625 3-3v-2c-4.268 0-4.939.376-8 3m-26-1c-2.463 4.237-3.217 6.27-2 11l2.16-.254c5.53-.588 10.38-.838 15.84.254v-4c-2.63-2.448-2.63-2.448-6-4q-2.505.476-5 1c-2.25-1.937-2.25-1.937-4-4zm9-1-2 2 3 1zm-37 4c1.049 2.622 1.65 3.794 4.125 5.25L281 144v2l4 1c-.716-2.016-.716-2.016-2-4a93 93 0 0 0-4-1l-1-3zm-6 2-2 2-2.375-.25L262 142c-2.27 2.779-2.27 2.779-4 6l-2 3-.75 2.063c-1.831 2.838-4.08 3.11-7.25 3.937 1.776 1.17 1.776 1.17 4 2 2-.413 2-.413 4-1.375 5.642-2.138 11.044-1.897 17-1.625v6c3.91 1.47 3.91 1.47 8 2v2l6 2 1-4c6.592.887 6.592.887 8.883 1.52 2.611.592 5.065.687 7.742.73l2.914.078L310 166c2.43-3.644 2.162-5.712 2-10l-2 2 1 2h-3l-2-4-6 1-2.93-5.273c-1.079-1.888-1.079-1.888-3.07-3.727-.298 3.776-.298 3.776 1 6h-2v3l-5-2v-4h-2l-1-2h-2l-.312 1.813c-.8 2.544-1.508 3.653-3.688 5.187-2.187-.312-2.187-.312-4-1v-2l5-1c-1.562-4.217-4.555-6.258-8-9a97 97 0 0 1-3-3m66 29c.613 2.962 1.254 4.38 3 7h2l1 3h4l1-3c-3.686-2.456-3.686-2.456-8-3l-1-4zm-23 4c.507 4.058 1.953 7.17 3.828 10.738.841 1.624 1.639 3.27 2.406 4.93l1.266 2.707 1.156 2.523c1.528 2.39 2.732 3.095 5.344 4.102-.395-5.526-2.472-7.87-6-12-1.312-3.375-1.312-3.375-2-6h-2l-.875-2.937c-.767-3.17-.767-3.17-3.125-4.063m111 44 1 2Zm-114 7v3h2l1-3zM59 29v3l3 1v2l1.676.785c2.644 1.382 5.052 2.963 7.511 4.653l2.668 1.808C76 44 76 44 77 47l3.125-.5c3.359-.433 6.5-.5 9.875-.5l2-1 1 4 2-1v2l1.75.25c2.866.955 4.25 2.535 6.25 4.75l1-10h-5c-.812-2.687-.812-2.687-1-6 2.313-2.687 2.313-2.687 5-5l2-3c3.261-.425 5.293-.353 8.25 1.125C115 34 115 34 116 37.063c.702 3.055.702 3.055 3.125 4.312L121 42l1.75-1.562C125 39 125 39 127.25 39.312L129 40l-.812 1.563L127 44l-1.75 3.313c-1.501 4.427-.853 6.385.75 10.687v2l2-2h3c-.46-2.688-1.015-5.036-2.062-7.562C128 48 128 48 128 44h3l1-3c2.375-.625 2.375-.625 5-1l2 2c2.323.4 4.657.74 7 1l1 3 2.168-.621c3.38-.452 5.048.196 8.144 1.559l2.676 1.152L162 49l1 9h3c4 6.5 4 6.5 4 11l-2 2 6 6a56.5 56.5 0 0 1-4 7h-2l-3 10c-3.438-1.241-6.349-2.443-9-5-.75-2.687-.75-2.687-1-5h-6l-1-4c2.076-.553 3.844-1 6-1a105 105 0 0 0 4-5h-5l1-9h-4l-.375 1.688c-1.32 4.88-2.823 7.89-6.625 11.312l2 7c-1.434.25-2.873.474-4.312.688l-2.426.386C136 86 136 86 134.395 84.52L133 83h-3l-1 3-2.437.938c-2.643.814-2.643.814-3.75 2.874L122 92l-1.125 2.75L120 97h2v5l2.25.25c3.307.902 4.435 2.285 6.75 4.75l2.188.813C135 109 135 109 135.813 112.437 136 116 136 116 135 119h2l1-9 5-2c-.095-.626-.19-1.253-.29-1.898-.11-.818-.22-1.635-.335-2.477l-.352-2.46L142 99l2-2c.677-2.197.677-2.197 1.125-4.625l.508-2.477L146 88l8 1 .313 1.938L155 93l3 1v6h3l2-4h2c2.035 7.503 2.035 7.503 1.813 10.688.29 3.58 2.634 4.941 5.187 7.312 1.438 1.813 1.438 1.813 2 4-.454 2.77-1.19 5.3-2 8h3l1 7c-3 0-3 0-6-1q-2.495-.524-5-1c1.875-4.75 1.875-4.75 3-7l-2.25.938c-2.257.871-4.395 1.539-6.75 2.062l-1 5h6l1 3a206 206 0 0 1-4.25 2.625l-2.39 1.477c-2.36.898-2.36.898-4.52.007L152 138c-2.25.5-2.25.5-4 2l-.375 1.938C147 144 147 144 144 145.625L141 147l-1 2h-2l-.121 1.723c-.874 6.461-.874 6.461-4.016 9.011l-2.488 1.578c-2.492 1.555-2.492 1.555-4.375 3.688-.78 4.104-.549 7.875 0 12h-4l-1-8-8-1-1 2-1.828-.07-2.422-.055-2.39-.07c-2.606.215-4.167.79-6.36 2.195-1.54 4.238-1.494 9.53-1 14l2 3c2.94-.184 2.94-.184 6-1 1.436-1.952 1.436-1.952 2-4h7l-3 10 7 1c.75 2.335 1.092 3.662.438 6.063L120 203l2 3c2.133.477 2.133.477 4.5.375l2.406.023L131 206l2-3c3.061-2.006 5.378-2.421 9-2l3.625 1.563c3.28 1.837 3.28 1.837 6.375.437 2.688.438 2.688.438 5 1v4l4 1v2l1.863.367 2.45.508 2.425.492c2.945.824 4.797 1.899 6.45 4.508C175 219 175 219 175 223c4.702 1.602 9.398 3.115 14.188 4.438 4.301 1.308 7.52 2.443 10.812 5.562.688 3.313.688 3.313 0 7-1.233 1.655-2.471 3.307-3.766 4.914-2.067 3.494-2.242 7.3-2.789 11.27-.55 3.477-1.348 5.97-3.445 8.816-2.937 1.188-2.937 1.188-6 2-2.346 1.01-2.346 1.01-4 3-.432 1.86-.859 3.723-1.246 5.594-1.536 4.9-4.39 9.545-7.754 13.406h-4l.75 2.25c.25 2.75.25 2.75-1.437 5.063C164 298 164 298 160 298l-.437 2.25c-.465 2.27-.982 4.508-1.563 6.75h-2l.125 2.375C156 312 156 312 154 314l3 2c-.566 2.454-1.238 4.548-2.25 6.875-1.06 3.168-1.06 3.168.375 6.313 1.772 2.658 3.186 4.143 5.875 5.812-1.625 1.563-1.625 1.563-4 3-4.944-.107-8.232-1.86-12-5v-4h-2c-3.844-12.3-3.844-12.3-2.062-18l1.062-2-2-1 .035-2.047.028-2.703.035-2.672c.01-2.502.01-2.502-.662-4.52-.594-2.802.321-4.953 1.066-7.659.993-4.785.784-9.657.748-14.524l.023-3.207c.043-7.56.043-7.56-2.273-14.668-1.666-1.505-1.666-1.505-3.687-2.562-5.092-3.46-7.233-8.242-9.868-13.61-1.285-2.873-1.285-2.873-3.445-4.828-.323-6.587.574-12.038 5-17h2c-1.21-4.607-1.21-4.607-3-9l-1 2-7-2v-2l-3-1-.812-2.5L113 201a100 100 0 0 0-6-1l-2.5-2.062c-2.327-2.225-2.327-2.225-5.187-1.875-5.55-.105-10.851-2.988-15.079-6.551-1.856-2.274-1.833-4.645-2.234-7.512a88 88 0 0 0-2-5h-2v5h-2c-5.356-5.785-7.239-12.526-8.945-20.059-1.26-3.514-1.89-3.411-5.055-4.941-4.017-9.976-3.643-19.372.355-29.121 1.052-3.065 1.013-5.69.645-8.879-1.4-2.285-1.4-2.285-3-4v-2h2l-1-3.25C60 106 60 106 60 102l-1.473-1.453c-2.06-2.086-1.888-3.41-1.965-6.297-.458-6.163-2.182-9.87-6.624-14.312C45.179 78.418 40.76 79.84 36 81l-2-3 .813 2.188C35 83 35 83 32.563 85.812L30 88l-3-2-1.906 1.059C19.59 89.984 15.23 91.654 9 92v-2l1.938-.687C19.002 85.972 19.002 85.972 25 80l-1.875-.125C21 79 21 79 19.75 76.438c-1.132-5.188-1.833-9.445.813-14.313C23.587 59.488 26.08 58.725 30 58l2 1v-3h-5c-1.125-1.687-1.125-1.687-2-4 .75-2.687.75-2.687 2-5 2.709-1.354 5.01-1.065 8-1l-.07-1.898-.055-2.477-.07-2.46C35 37 35 37 37 35l6-2q1.947-1.046 3.875-2.125c4.22-2.2 7.42-2.211 12.125-1.875m85 18c-2.587 1.211-4.116 1.928-6 4-1.065 3.93-1.866 8.267 0 12h2l1 5c1.646-1.228 1.646-1.228 3-3-.251-2.137-.46-3.46-2-5-.47-6.235-.47-6.235 1.5-9.437L145 49zm-39 9 1 2Zm-2 4 1 2c1.895.465 1.895.465 4.063.625L112 63v-3zm14 1c1.157 2.1 1.157 2.1 3 4 2.626.334 2.626.334 5 0v-3c-2.79-1.105-2.79-1.105-5-1zm-26 3-1 3h5zm48 4 1 2Zm26 11 1 4 1-2zm-73 4-1 2 3-1zm17 29 1 3Zm47 12-1 2h3v-2zm-35 2-2 2h3v2h3l-1-4zm6 6 1 5 3-4zm-6 2 1 2Zm-1 3 1 3Zm-48 27 1 3Zm1 3 1 2Zm2 4 1 2Z"/><path fill="#FFF" d="M197 6c.75 2 .75 2 1 4l-1 2 3.25-.5c6.908-.921 6.908-.921 9.75.5l1-3c2.313-1.125 2.313-1.125 5-2l1.875-.625c4.214-.744 7.802-.973 11.75.813 2.708 2.066 5.036 4.34 7.375 6.812l-1 1.813c-1.208 2.24-1.208 2.24-1 5.187l3-3 1 2c2.527.656 2.527.656 5 1-.607 3.43-1.894 5.428-4.062 8.125-2.329 2.623-2.329 2.623-2.938 5.875h-2v14h-2v2h2v3h-2c-2.347 5.533-4.369 10.917-4 17h-2l-1 3c-3.515 2.433-7.162 3.876-11.375 4.5L212 79l-.875 1.875L210 83l-3.687.813c-3.476 1.08-4.742 2.602-6.395 5.71-1.803 3.76-3.391 7.598-4.918 11.477l-4-1v-2l-1.895-.254C187 97 187 97 185.988 95.286c-4.303-14.155-4.303-14.155-1.675-20.411L186 73h2v-2l-4-1 .473-2.387c1.451-8.124 1.518-15.43.527-23.613l-1.898-.262c-2.463-.423-4.745-.904-7.102-1.738-1.625-2.312-1.625-2.312-2-5 .31-1.671.64-3.339 1-5l-2-2c-2.52 1.229-2.52 1.229-5 3a140 140 0 0 0-1 4 142 142 0 0 1-5 5l-2 3c-5.38-.34-9.533-.686-14-4l1-8h-2v-5l4 1v2l3-1v-2h3v2h2v-3l-2.062-1.125C153 24 153 24 152.816 22.02c.42-5.34 1.828-8.748 5.184-13.02l2-3h3l1 4V5c11.811-4.684 22.02-6.32 33 1m-32 7 1 2Zm26 1 1 3 1-3zm40 4 1 2Zm-47 1-1.312 1.375C181 22 181 22 178.375 22.938L176 24l-1 4 10-2c1.21-3.105 1.21-3.105 1-7zm-33 16c1.312 1.562 1.312 1.562 3 3h3v-2zm7 1v2l3-1zM492 243l2 1c.625 3.063.625 3.063 1 6h2l.297 1.793c.981 5.187 2.116 8.21 5.703 12.207 3.97 5 5.751 9.006 5.441 15.457-.728 4.196-2.425 7.818-4.441 11.543h-2l-.75 2.563c-1.687 4.64-3.285 9.034-7.437 12-4.722.734-9.549-.43-13.813-2.563-.625-3.062-.625-3.062-1-6h-3v-3h-2l-1-6c-6.068-1.42-10.303-.47-16 2l-1 1c-4.616 1.306-9.183 2.31-14 2-1.14-3.547-1.14-3.547-.492-5.645.855-4.093.126-8.289-.28-12.423-.34-4.167-.438-7.308 1.772-10.932 2.023-1.293 2.023-1.293 4.375-2.187l2.336-.918L452 260c3.41-1.512 4.594-2.486 6-6h3l.688-1.937C463 250 463 250 465.625 249.25L468 249v2h2l2-7q2.72.173 5.438.375c1.009.07 2.018.14 3.058.21L483 245c1.333 2.667.671 4.167 0 7l4 2v2h2l.402-2.336.536-3.039.527-3.023C491 245 491 245 492 243M474 223c2.938.813 2.938.813 6 2l1 3 2-3c5.456 1.744 10.828 3.522 16 6l1 2h8l-2-5 5 2c-.573 2.867-.861 3.861-3 6-3.125-.375-3.125-.375-6-1 2.038 4.06 2.038 4.06 6 6l-1 3c-3.437-.812-3.437-.812-7-2l-1-3h-3l-1 2c-3.522.08-6.62.04-10-1v-5l-3.375-1.437c-1.892-.816-3.782-1.642-5.625-2.563l-1-3-2-1zM477 125l2.813 1c3.107 1.15 3.107 1.15 6.187 1l-3 7h-3l1.5 2.25c2.411 4.777 2.293 10.556 1.5 15.75-3 2-3 2-6 2l-1 3-6 1-1 7c-3-3.75-3-3.75-3-6l-2-1c1.498-2.498 3.016-4.86 5-7 2.813-.437 2.813-.437 5 0v-5h2c.731-3.9 1.099-7.13.5-11.062-.468-3.683-.308-6.348.5-9.938M276 25l2 2 3.063.5L284 28l1 2c-.687 2.063-.687 2.063-2 4-2.125.75-2.125.75-4 1l4 5-2 4-4-2-2 6c-3.482-2.5-5.16-3.802-6-8l-3-2c-.187-3.125-.187-3.125 0-6 2.906-1.257 4.796-2 8-2zM449 211h3v2l4 2-3 2 1 6h-2l-2 9c-7.625-.875-7.625-.875-11-2-1.527-2.75-2.022-4.537-1.875-7.687C438 220 438 220 439.688 219l2.312-1c4.094-2.967 4.094-2.967 7-7M126 17a85 85 0 0 1-2 7c1.372 2.19 1.372 2.19 3 4l2-4h2v5h2v6h-14l-1-4h-2c-1.13-3.314-2.179-6.597-3-10 8.262-4.592 8.262-4.592 13-4M336 245l3 1c.264 5.492-.539 9.705-2.312 14.813l-.647 2.021c-1.227 3.629-1.762 4.98-5.041 7.166-3.517-.517-3.517-.517-5-2-.334-5.342-.214-11.045 2-16 3-1.25 3-1.25 6-2 1.44-2.51 1.44-2.51 2-5M331 37l4 1c-.5 4.339-3.217 6.81-6 10-2.595 3.893-3.101 7.35-3 12 1.311 2.363 1.311 2.363 3 4v3c-4.296-.488-6.662-1.293-10-4 .203-2.546.436-5.083.688-7.625l.162-2.16c.585-5.55 2.164-8.29 6.15-12.215 2.25-.687 2.25-.687 4-1zM350 7c4.875 1.75 4.875 1.75 6 4l2.5 1c2.5 1 2.5 1 3.5 3l3-1c2.688 1.438 2.688 1.438 5 3-.25 2.375-.25 2.375-1 5-2.062 1.313-2.062 1.313-4 2l-2-4-3.125.188c-4.142-.2-6.38-1.024-9.875-3.188-1.491-2.982-1.12-5.716-1-9zM455 189h4l-.375 3.25L459 196a187 187 0 0 0 6 4c2.168 4.995 2.079 8.715 1 14l-4-1v-2h-2l-1 2c-1-3-1-3 0-6-.394-2.638-.394-2.638-1-5l-4-1v-4l-.062-3.687C454 190 454 190 455 189m4 11 1 2ZM226.723 82.902l3.34.035 3.347.028L236 83c1.04 1.867 1.04 1.867 2 4-.74 2.516-1.592 3.67-3.625 5.313-3.634 1.052-6.66.306-10.375-.313-.879-6.152-.879-6.152-1-8 1-1 1-1 3.723-1.098"/><path fill="#FFF" d="M142 13h4v2h2c3.27 4.904 4.225 7.05 4 13l-5-1-1-3h-5c-1.026-4.41-1.037-6.926 1-11M414 14h11l1 4c-2.125 2.813-2.125 2.813-5 5-3.437-.084-6.021-1.345-9-3zM135 27h2v2h2v-2l5 2-2 6 3-1v6h-4l-1-2-1.937-.312C136 37 136 37 134.688 34.75c-.753-3.011-.532-4.795.312-7.75M465 221c-1 3-1 3-3 4v2h-2l1 7-6 1c-1.412-2.302-2.03-3.595-1.828-6.324l.578-2.363c.18-.788.36-1.576.547-2.387 1.602-4.387 6.817-2.989 10.703-2.926M312 13l2 4h3l1-2 3 1c-.95 3.354-1.897 6.692-3 10h-8c-.167-4.921-.248-8.503 2-13m3 6 1 3ZM119 181c7.075-.643 11.095 1.173 17 5v2c-6.58.373-6.58.373-8.687-1.5L126 185h-4a69 69 0 0 1-4-1zM485 310h6c1 3 1 3 .375 5.625-1.375 2.375-1.375 2.375-4 3.188L485 319zM131 14h6l-1 4h-2l-2 4-4-1-1-4 4-1zM302 21h6l1 7-6-1v-2h-3z"/><path fill="#FFF" d="M137 187h6l2 4c-6.625 1.125-6.625 1.125-10 0v-2h2zM268 143h3v9h-3zM423 23l7 2v3l-5 1v-3h-2zM454 175h2v7h-3c-.043-2-.04-4 0-6zM427 14h6l-1 4-6-2zM469 219l2 2c-.25 3.063-.25 3.063-1 6l-2 1c-.098-6.152-.098-6.152 0-8zM56 102h3l-1 7c-2-2-2-2-2.125-4.625zM15 54l4 1v4h-2zM527 263c1.938.813 1.938.813 4 2l1 3-4-1zM8 93l-1 2c-3.062.625-3.062.625-6 1v-2c3.625-2.125 3.625-2.125 7-1M523 239l2 1c.625 2.063.625 2.063 1 4h-2v-2h-3v-2zM513 233l5 3-4 1zM470 228l4 1v2h-5zM454 203l1 3-4 2c1.875-3.875 1.875-3.875 3-5M138 86h4l-1 3h-3zM293 158h5v2h-5zM318 71h3v3h-3zM137 21h2l-1 4h-2zM146 190h4v2h-4zM128 190h4v2h-4zM487 123l2 1-3 3c0-3 0-3 1-4M143 88h2l-1 3h-2zM146 85l4 1-4 1zM151 11l3 1-1 2h-2zM465 229h3v2h-3zM493 106h2v3h-2zM138 106h3v2h-3zM15 70h3v2h-3zM129 177l2 1-1 3zM531 264l3 1h-3zM532 251l2 2-2 1zM479 234h2v2h-2zM435 228h2v2h-2zM409 199h2v2h-2zM129 174h3l-1 2zM260 149l3 1-3 1zM153 65v3ZM355 29h2v2h-2zM363 28h2v2h-2zM417 26l3 1h-3zM484 307h2l-1 2zM533 254l2 1-2 1zM520 237l2 2h-2zM517 238h2l-1 2zM463 227l3 1ZM420 226h2l-1 2zM460 156l1 2-2-1zM489 121l2 1-2 1zM159 95l1 2-2-1zM371 19l3 1ZM317 13l1 2-2-1zM500 227l2 1ZM135 182l2 1ZM133 179l2 1ZM466 168l2 1ZM350 38l2 1Z"/></svg>